#N canvas 12 49 593 969 10;
#X declare -lib else -path else;
#X obj 24 16 inlet~;
#X obj 34 624 outlet~;
#X text 439 7 A channel strip for mono audio-input., f 20;
#X obj 393 58 declare -lib else -path else;
#X obj 114 263 svfilter~ 10000;
#X obj 89 170 svfilter~ 20;
#X obj 336 207 tgl 16 0 \$0-lp-on \$0-lp-on-set lowpass 19 8 0 10 #fcfcfc #000000 #000000 0 1;
#X floatatom 416 207 9 0 0 0 - \$0-lp-freq-set \$0-lp-freq 0;
#X obj 336 186 tgl 16 0 \$0-hp-on \$0-hp-on-set highpass 19 8 0 10 #fcfcfc #000000 #000000 0 1;
#X floatatom 416 187 9 0 0 0 - \$0-hp-freq-set \$0-hp-freq 0;
#X floatatom 450 231 6 0 0 0 - \$0-post-filter-gain-set \$0-post-filter-gain 0;
#X text 333 230 post filter gain:;
#X obj 54 349 r \$0-post-filter-gain;
#X obj 43 245 tgl 16 0 empty \$0-lp-on empty 0 -8 0 10 #fcfcfc #000000 #000000 0 1;
#X obj 41 151 tgl 16 0 empty \$0-hp-on empty 0 -8 0 10 #fcfcfc #000000 #000000 0 1;
#X obj 123 147 r \$0-hp-freq;
#X obj 157 241 r \$0-lp-freq;
#X obj 31 195 xselect~ 2 0 1;
#X obj 41 172 + 1;
#X obj 33 292 xselect~ 2 0 1;
#X obj 43 269 + 1;
#X obj 33 324 noisegate~ -100 10 10;
#X floatatom 420 273 7 0 0 0 - \$0-noise-gate-thresh-set \$0-noise-gate-thresh 0;
#X text 467 272 dBFS;
#X obj 156 301 r \$0-noise-gate-thresh;
#X obj 33 372 *~ 1;
#X text 333 327 COMPRESSION:;
#X obj 419 327 tgl 16 0 \$0-comp-on \$0-comp-on-set on/off 19 8 0 10 #fcfcfc #000000 #000000 0 1;
#X obj 44 417 tgl 16 0 empty \$0-comp-on empty 0 -8 0 10 #fcfcfc #000000 #000000 0 1;
#X obj 44 438 + 1;
#X obj 34 459 xselect~ 2 0 1;
#X text 355 350 attack:;
#X floatatom 410 351 5 0 0 0 - \$0-attack-set \$0-attack 0;
#X text 447 350 ms;
#X floatatom 410 370 5 0 0 0 - \$0-release-set \$0-release 0;
#X text 447 369 ms;
#X floatatom 410 393 5 0 0 0 - \$0-ratio-set \$0-ratio 0;
#X floatatom 410 411 5 0 0 0 - \$0-thresh-set \$0-thresh 0;
#X floatatom 410 429 5 0 0 0 - \$0-gain-set \$0-gain 0;
#X text 349 369 release:;
#X text 361 392 ratio:;
#X text 337 410 threshold:;
#X text 337 428 post gain:;
#X text 447 410 dB;
#X text 447 428 dB;
#N canvas 614 652 450 300 compressor 0;
#X obj 25 193 else/compress~;
#X msg 75 99 attack \$1;
#X msg 195 99 release \$1;
#X msg 208 150 ratio \$1;
#X msg 126 148 thresh \$1;
#X msg 290 151 gain \$1;
#X obj 75 78 r \$0-attack;
#X obj 195 77 r \$0-release;
#X obj 126 126 r \$0-thresh;
#X obj 208 127 r \$0-ratio;
#X obj 290 126 r \$0-gain;
#X obj 24 14 inlet~;
#X obj 25 254 outlet~;
#X connect 0 0 12 0;
#X connect 1 0 0 0;
#X connect 2 0 0 0;
#X connect 3 0 0 0;
#X connect 4 0 0 0;
#X connect 5 0 0 0;
#X connect 6 0 1 0;
#X connect 7 0 2 0;
#X connect 8 0 4 0;
#X connect 9 0 3 0;
#X connect 10 0 5 0;
#X connect 11 0 0 0;
#X restore 113 427 pd compressor;
#X obj 34 506 ffdelay~ -size 2000 0;
#X floatatom 410 458 8 0 2000 0 - \$0-delay-set \$0-delay 0;
#X text 464 457 ms;
#X text 331 457 delay time:;
#X obj 157 481 r \$0-delay;
#X obj 312 192 vu 8 280 empty empty -1 -8 0 10 #404040 #000000 0 0;
#X obj 55 47 vu~ 1024 128, f 19;
#X obj 505 192 vu 8 280 empty empty -1 -8 0 10 #404040 #000000 0 0;
#X obj 55 546 vu~ 1024 128, f 20;
#X obj 55 567 s \$0-post-vu-rms;
#X obj 171 568 s \$0-post-vu-peak;
#X obj 475 130 r \$0-post-vu-peak;
#X obj 475 110 r \$0-post-vu-rms;
#X obj 55 68 s \$0-pre-vu-rms;
#X obj 166 68 s \$0-pre-vu-peak;
#X obj 312 129 r \$0-pre-vu-peak;
#X obj 311 110 r \$0-pre-vu-rms;
#X text 333 288 (set to -100 if you don't hear anything), f 27;
#X text 333 272 threshold:;
#X text 334 253 NOISE GATE:;
#X text 333 165 FILTER:;
#X obj 274 15 inlet;
#X text 315 14 control data;
#N canvas 85 38 688 1050 control 0;
#X obj 12 6 inlet;
#X obj 13 104 bng 16 250 50 0 empty empty empty 0 -8 0 10 #fcfcfc #000000 #000000;
#N canvas 43 748 99 54 thru 0;
#X obj 14 9 inlet;
#X obj 14 30 outlet;
#X connect 0 0 1 0;
#X restore 13 132 pd thru;
#X obj 23 237 s \$0-lp-freq-set;
#X obj 175 243 s \$0-hp-freq-set;
#X msg 23 216 10000;
#X msg 175 221 20;
#X obj 25 507 s \$0-post-filter-gain-set;
#X msg 25 486 1;
#X msg 177 368 1;
#X msg 23 366 0;
#X obj 177 389 s \$0-hp-on-set;
#X obj 23 387 s \$0-lp-on-set;
#X msg 28 609 -100;
#X obj 28 630 s \$0-noise-gate-thresh-set;
#X obj 22 755 s \$0-comp-on-set;
#X msg 22 734 0;
#X obj 301 1077 s \$0-gain-set;
#X obj 157 897 s \$0-release-set;
#X obj 23 896 s \$0-attack-set;
#X obj 24 1077 s \$0-ratio-set;
#X obj 158 1078 s \$0-thresh-set;
#X msg 23 875 10;
#X msg 157 876 10;
#X msg 158 1057 -10;
#X msg 301 1056 0;
#X msg 24 1056 1;
#X msg 33 1223 0;
#X obj 33 1244 s \$0-delay-set;
#X obj 14 69 1;
#X obj 13 35 route init reset;
#X obj 137 143 r \$0-lp-freq;
#X obj 320 139 r \$0-hp-freq;
#X obj 94 456 r \$0-post-filter-gain;
#X obj 122 558 r \$0-noise-gate-thresh;
#X obj 121 701 r \$0-comp-on;
#X obj 81 825 r \$0-attack;
#X obj 279 820 r \$0-release;
#X obj 59 1003 r \$0-ratio;
#X obj 226 1001 r \$0-thresh;
#X obj 406 999 r \$0-gain;
#X obj 106 1185 r \$0-delay;
#X obj 137 187 input-strip_state lp-freq;
#X obj 320 185 input-strip_state hp-freq;
#X obj 56 338 input-strip_state lp-on;
#X obj 293 337 input-strip_state hp-on;
#X obj 94 477 input-strip_state post-filter-gain, f 43;
#X obj 122 579 input-strip_state noise-gate-thresh;
#X obj 121 722 input-strip_state comp-on;
#X obj 81 846 input-strip_state attack;
#X obj 279 841 input-strip_state release;
#X obj 59 1024 input-strip_state ratio;
#X obj 226 1022 input-strip_state thresh;
#X obj 406 1022 input-strip_state gain;
#X obj 106 1208 input-strip_state delay;
#X obj 211 164 savestate;
#X obj 412 162 savestate;
#X obj 54 314 r \$0-lp-on;
#X obj 292 310 r \$0-hp-on;
#X obj 142 302 savestate;
#X obj 383 298 savestate;
#X obj 264 436 savestate;
#X obj 283 538 savestate;
#X obj 227 691 savestate;
#X obj 166 780 savestate;
#X obj 399 801 savestate;
#X obj 127 959 savestate;
#X obj 301 968 savestate;
#X obj 496 968 savestate;
#X obj 198 1167 savestate;
#X connect 0 0 30 0;
#X connect 1 0 2 0;
#X connect 2 0 5 0;
#X connect 2 0 10 0;
#X connect 2 0 6 0;
#X connect 2 0 9 0;
#X connect 2 0 8 0;
#X connect 2 0 13 0;
#X connect 2 0 16 0;
#X connect 2 0 26 0;
#X connect 2 0 24 0;
#X connect 2 0 25 0;
#X connect 2 0 23 0;
#X connect 2 0 22 0;
#X connect 2 0 27 0;
#X connect 5 0 3 0;
#X connect 6 0 4 0;
#X connect 8 0 7 0;
#X connect 9 0 11 0;
#X connect 10 0 12 0;
#X connect 13 0 14 0;
#X connect 16 0 15 0;
#X connect 22 0 19 0;
#X connect 23 0 18 0;
#X connect 24 0 21 0;
#X connect 25 0 17 0;
#X connect 26 0 20 0;
#X connect 27 0 28 0;
#X connect 29 0 1 0;
#X connect 30 0 29 0;
#X connect 30 1 29 0;
#X connect 31 0 42 0;
#X connect 32 0 43 0;
#X connect 33 0 46 0;
#X connect 34 0 47 0;
#X connect 35 0 48 0;
#X connect 36 0 49 0;
#X connect 37 0 50 0;
#X connect 38 0 51 0;
#X connect 39 0 52 0;
#X connect 40 0 53 0;
#X connect 41 0 54 0;
#X connect 42 0 3 0;
#X connect 42 1 55 0;
#X connect 43 0 4 0;
#X connect 43 1 56 0;
#X connect 44 0 12 0;
#X connect 44 1 59 0;
#X connect 45 0 11 0;
#X connect 45 1 60 0;
#X connect 46 0 7 0;
#X connect 46 1 61 0;
#X connect 47 0 14 0;
#X connect 47 1 62 0;
#X connect 48 0 15 0;
#X connect 48 1 63 0;
#X connect 49 0 19 0;
#X connect 49 1 64 0;
#X connect 50 0 18 0;
#X connect 50 1 65 0;
#X connect 51 0 20 0;
#X connect 51 1 66 0;
#X connect 52 0 21 0;
#X connect 52 1 67 0;
#X connect 53 0 17 0;
#X connect 53 1 68 0;
#X connect 54 0 28 0;
#X connect 54 1 69 0;
#X connect 55 0 42 1;
#X connect 55 1 42 2;
#X connect 56 0 43 1;
#X connect 56 1 43 2;
#X connect 57 0 44 0;
#X connect 58 0 45 0;
#X connect 59 0 44 1;
#X connect 59 1 44 2;
#X connect 60 0 45 1;
#X connect 60 1 45 2;
#X connect 61 0 46 1;
#X connect 61 1 46 2;
#X connect 62 0 47 1;
#X connect 62 1 47 2;
#X connect 63 0 48 1;
#X connect 63 1 48 2;
#X connect 64 0 49 1;
#X connect 64 1 49 2;
#X connect 65 0 50 1;
#X connect 65 1 50 2;
#X connect 66 0 51 1;
#X connect 66 1 51 2;
#X connect 67 0 52 1;
#X connect 67 1 52 2;
#X connect 68 0 53 1;
#X connect 68 1 53 2;
#X connect 69 0 54 1;
#X connect 69 1 54 2;
#X restore 274 41 pd control;
#X text 308 705 Adapted from Michael Edwards's MaxMSP input-strip., f 43;
#X text 308 668 AUTHOR: Ruben Philipp <me@rubenphilipp.com>;
#X text 308 683 DATE: 2025-04-05;
#X connect 0 0 17 0;
#X connect 0 0 5 0;
#X connect 0 0 52 0;
#X connect 4 0 19 1;
#X connect 5 1 17 1;
#X connect 12 0 25 1;
#X connect 13 0 20 0;
#X connect 14 0 18 0;
#X connect 15 0 5 1;
#X connect 16 0 4 1;
#X connect 17 0 4 0;
#X connect 17 0 19 0;
#X connect 18 0 17 0;
#X connect 19 0 21 0;
#X connect 20 0 19 0;
#X connect 21 0 25 0;
#X connect 24 0 21 1;
#X connect 25 0 30 0;
#X connect 25 0 45 0;
#X connect 28 0 29 0;
#X connect 29 0 30 0;
#X connect 30 0 46 0;
#X connect 45 0 30 1;
#X connect 46 0 1 0;
#X connect 46 0 54 0;
#X connect 50 0 46 1;
#X connect 52 0 59 0;
#X connect 52 1 60 0;
#X connect 54 0 55 0;
#X connect 54 1 56 0;
#X connect 57 0 53 1;
#X connect 58 0 53 0;
#X connect 61 0 51 1;
#X connect 62 0 51 0;
#X connect 67 0 69 0;
#X coords 0 -1 1 1 215 315 2 305 165;
