#N canvas 29 184 791 859 10;
#X obj 58 110 input-strip;
#A saved lp-freq 10000;
#A saved hp-freq 20;
#A saved lp-on 0;
#A saved hp-on 1;
#A saved post-filter-gain 1;
#A saved noise-gate-thresh -100;
#A saved comp-on 0;
#A saved attack 10;
#A saved release 10;
#A saved ratio 1;
#A saved thresh -10;
#A saved gain 0;
#A saved delay 0;
#X text 606 16 A channel strip for mono audio-input., f 20;
#X obj 58 430 else/scope~ 216 114 256 3 8 -1 1 0 0 0 0 30 30 30 190 190 190 160 160 160 0 empty;
#X obj 58 52 adc~ 1;
#X obj 59 567 else/setdsp~;
#X text 606 49 The state is always saved internally via [savestate]., f 23;
#X msg 265 75 init;
#X text 306 74 Initialize to defaults.;
#X obj 227 47 r \$0-ctrl;
#X obj 568 761 s \$0-ctrl;
#X msg 350 193 lp-freq \$1;
#X floatatom 350 162 5 0 0 0 - - - 0;
#X floatatom 445 162 5 0 0 0 - - - 0;
#X msg 445 193 hp-freq \$1;
#X obj 352 246 tgl 19 0 empty empty empty 0 -10 0 12 #fcfcfc #000000 #000000 0 1;
#X msg 352 270 lp-on \$1;
#X obj 456 246 tgl 19 0 empty empty empty 0 -10 0 12 #fcfcfc #000000 #000000 0 1;
#X msg 456 270 hp-on \$1;
#X floatatom 353 312 5 0 0 0 - - - 0;
#X msg 353 335 post-filter-gain \$1;
#X floatatom 353 376 5 0 0 0 - - - 0;
#X msg 353 399 noise-gate-thresh \$1;
#X obj 353 430 tgl 19 0 empty empty empty 0 -10 0 12 #fcfcfc #000000 #000000 0 1;
#X msg 353 454 comp-on \$1;
#X floatatom 353 486 5 0 0 0 - - - 0;
#X msg 353 509 attack \$1;
#X floatatom 474 486 5 0 0 0 - - - 0;
#X msg 474 509 release \$1;
#X floatatom 579 486 5 0 0 0 - - - 0;
#X msg 579 509 ratio \$1;
#X floatatom 674 486 5 0 0 0 - - - 0;
#X msg 674 509 thresh \$1;
#X floatatom 352 554 5 0 0 0 - - - 0;
#X msg 352 577 gain \$1;
#X floatatom 353 612 5 0 0 0 - - - 0;
#X msg 353 635 delay \$1;
#X connect 0 0 2 0;
#X connect 3 0 0 0;
#X connect 6 0 0 1;
#X connect 8 0 0 1;
#X connect 10 0 9 0;
#X connect 11 0 10 0;
#X connect 12 0 13 0;
#X connect 13 0 9 0;
#X connect 14 0 15 0;
#X connect 15 0 9 0;
#X connect 16 0 17 0;
#X connect 17 0 9 0;
#X connect 18 0 19 0;
#X connect 19 0 9 0;
#X connect 20 0 21 0;
#X connect 21 0 9 0;
#X connect 22 0 23 0;
#X connect 23 0 9 0;
#X connect 24 0 25 0;
#X connect 25 0 9 0;
#X connect 26 0 27 0;
#X connect 27 0 9 0;
#X connect 28 0 29 0;
#X connect 29 0 9 0;
#X connect 30 0 31 0;
#X connect 31 0 9 0;
#X connect 32 0 33 0;
#X connect 33 0 9 0;
#X connect 34 0 35 0;
#X connect 35 0 9 0;
