#N canvas 414 78 1362 969 10;
#X declare -lib else -path else;
#X obj 24 16 inlet~;
#X obj 34 624 outlet~;
#X text 439 7 A channel strip for mono audio-input., f 20;
#X obj 393 58 declare -lib else -path else;
#X obj 114 263 svfilter~ 10000;
#X obj 89 170 svfilter~ 20;
#X obj 336 227 tgl 16 0 \$0-lp-on empty lowpass 19 8 0 10 #fcfcfc #000000 #000000 0 1;
#X floatatom 416 227 9 0 0 0 - \$0-lp-freq-set - 0;
#X obj 336 206 tgl 16 0 \$0-hp-on empty highpass 19 8 0 10 #fcfcfc #000000 #000000 0 1;
#X floatatom 416 207 9 0 0 0 - \$0-hp-freq-set - 0;
#X floatatom 450 251 6 0 0 0 - \$0-post-filter-gain-set - 0;
#X text 333 250 post filter gain:;
#X obj 54 349 r \$0-post-filter-gain;
#X obj 43 245 tgl 16 0 empty \$0-lp-on empty 0 -8 0 10 #fcfcfc #000000 #000000 0 1;
#X obj 41 151 tgl 16 0 empty \$0-hp-on empty 0 -8 0 10 #fcfcfc #000000 #000000 0 1;
#X obj 123 147 r \$0-hp-freq;
#X obj 157 241 r \$0-lp-freq;
#X obj 31 195 xselect~ 2 0 1;
#X obj 41 172 + 1;
#X obj 33 292 xselect~ 2 0 1;
#X obj 43 269 + 1;
#X obj 33 324 noisegate~ -100 10 10;
#X floatatom 420 293 7 0 0 0 - \$0-noise-gate-thresh-set - 0;
#X text 467 292 dBFS;
#X obj 156 301 r \$0-noise-gate-thresh;
#X obj 33 372 *~ 1;
#X text 333 347 COMPRESSION:;
#X obj 419 347 tgl 16 0 \$0-comp-on empty on/off 19 8 0 10 #fcfcfc #000000 #000000 0 1;
#X obj 44 417 tgl 16 0 empty \$0-comp-on empty 0 -8 0 10 #fcfcfc #000000 #000000 0 1;
#X obj 44 438 + 1;
#X obj 34 459 xselect~ 2 0 1;
#X text 355 370 attack:;
#X floatatom 410 371 5 0 0 0 - \$0-attack-set - 0;
#X text 447 370 ms;
#X floatatom 410 390 5 0 0 0 - \$0-release-set - 0;
#X text 447 389 ms;
#X floatatom 410 413 5 0 0 0 - \$0-ratio-set - 0;
#X floatatom 410 431 5 0 0 0 - \$0-thresh-set - 0;
#X floatatom 410 449 5 0 0 0 - \$0-gain-set - 0;
#X text 349 389 release:;
#X text 361 412 ratio:;
#X text 337 430 threshold:;
#X text 337 448 post gain:;
#X text 447 430 dB;
#X text 447 448 dB;
#N canvas 614 652 450 300 compressor 0;
#X obj 25 193 else/compress~;
#X msg 75 99 attack \$1;
#X msg 195 99 release \$1;
#X msg 208 150 ratio \$1;
#X msg 126 148 thresh \$1;
#X msg 290 151 gain \$1;
#X obj 75 78 r \$0-attack;
#X obj 195 77 r \$0-release;
#X obj 126 126 r \$0-thresh;
#X obj 208 127 r \$0-ratio;
#X obj 290 126 r \$0-gain;
#X obj 24 14 inlet~;
#X obj 25 254 outlet~;
#X connect 0 0 12 0;
#X connect 1 0 0 0;
#X connect 2 0 0 0;
#X connect 3 0 0 0;
#X connect 4 0 0 0;
#X connect 5 0 0 0;
#X connect 6 0 1 0;
#X connect 7 0 2 0;
#X connect 8 0 4 0;
#X connect 9 0 3 0;
#X connect 10 0 5 0;
#X connect 11 0 0 0;
#X restore 113 427 pd compressor;
#X obj 34 506 ffdelay~ -size 2000 0;
#X floatatom 410 478 8 0 2000 0 - \$0-delay-set - 0;
#X text 464 477 ms;
#X text 331 477 delay time:;
#X obj 157 481 r \$0-delay;
#X obj 312 189 vu 8 280 empty empty -1 -8 0 10 #404040 #000000 0 0;
#X obj 55 47 vu~ 1024 128, f 19;
#X obj 505 189 vu 8 280 empty empty -1 -8 0 10 #404040 #000000 0 0;
#X obj 55 546 vu~ 1024 128, f 20;
#X obj 55 567 s \$0-post-vu-rms;
#X obj 171 568 s \$0-post-vu-peak;
#X obj 510 100 r \$0-post-vu-peak;
#X obj 510 80 r \$0-post-vu-rms;
#X obj 55 68 s \$0-pre-vu-rms;
#X obj 166 68 s \$0-pre-vu-peak;
#X obj 312 129 r \$0-pre-vu-peak;
#X obj 311 110 r \$0-pre-vu-rms;
#X text 333 308 (set to -100 if you don't hear anything), f 27;
#X text 333 292 threshold:;
#X text 334 273 NOISE GATE:;
#X text 333 185 FILTER:;
#X obj 274 15 inlet;
#X text 315 14 control data;
#N canvas 651 38 758 711 control 0;
#X obj 12 6 inlet;
#X obj 13 104 bng 16 250 50 0 empty empty empty 0 -8 0 10 #fcfcfc #000000 #000000;
#N canvas 43 748 99 54 thru 0;
#X obj 14 9 inlet;
#X obj 14 30 outlet;
#X connect 0 0 1 0;
#X restore 13 132 pd thru;
#X obj 21 218 s \$0-lp-freq-set;
#X obj 173 224 s \$0-hp-freq-set;
#X msg 21 197 10000;
#X msg 173 202 20;
#X obj 22 325 s \$0-post-filter-gain-set;
#X msg 22 304 1;
#X msg 176 254 1;
#X msg 22 252 0;
#X obj 176 275 s \$0-hp-on-set;
#X obj 22 273 s \$0-lp-on-set;
#X msg 25 358 -100;
#X obj 25 379 s \$0-noise-gate-thresh-set;
#X obj 19 428 s \$0-comp-on-set;
#X msg 19 407 0;
#X obj 295 540 s \$0-gain-set;
#X obj 152 490 s \$0-release-set;
#X obj 18 489 s \$0-attack-set;
#X obj 18 540 s \$0-ratio-set;
#X obj 152 541 s \$0-thresh-set;
#X msg 18 468 10;
#X msg 152 469 10;
#X msg 152 520 -10;
#X msg 295 519 0;
#X msg 18 519 1;
#X msg 17 586 0;
#X obj 17 607 s \$0-delay-set;
#X obj 14 69 1;
#X obj 13 35 route init reset;
#N canvas 521 222 949 518 setters 0;
#X obj 24 14 inlet;
#X obj 23 89 s \$0-lp-freq-set;
#X obj 131 89 s \$0-hp-freq-set;
#X obj 249 91 s \$0-lp-on-set;
#X obj 357 92 s \$0-hp-on-set;
#X obj 477 93 s \$0-post-filter-gain-set;
#X obj 684 94 s \$0-noise-gate-thresh-set;
#X obj 50 142 s \$0-comp-on-set;
#X obj 171 142 s \$0-attack-set;
#X obj 293 146 s \$0-release-set;
#X obj 433 149 s \$0-ratio-set;
#X obj 548 150 s \$0-thresh-set;
#X obj 671 152 s \$0-gain-set;
#X obj 28 196 s \$0-delay-set;
#X obj 23 48 route lp-freq hp-freq lp-on hp-on post-filter-gain noise-gate-thresh comp-on attack release ratio thresh gain delay preset, f 131;
#X obj 154 198 s \$0-to-presetsctrl;
#X connect 0 0 14 0;
#X connect 14 0 1 0;
#X connect 14 1 2 0;
#X connect 14 2 3 0;
#X connect 14 3 4 0;
#X connect 14 4 5 0;
#X connect 14 5 6 0;
#X connect 14 6 7 0;
#X connect 14 7 8 0;
#X connect 14 8 9 0;
#X connect 14 9 10 0;
#X connect 14 10 11 0;
#X connect 14 11 12 0;
#X connect 14 12 13 0;
#X connect 14 13 15 0;
#X restore 105 66 pd setters;
#X text 64 133 initial values;
#X connect 0 0 30 0;
#X connect 1 0 2 0;
#X connect 2 0 5 0;
#X connect 2 0 10 0;
#X connect 2 0 6 0;
#X connect 2 0 9 0;
#X connect 2 0 8 0;
#X connect 2 0 13 0;
#X connect 2 0 16 0;
#X connect 2 0 26 0;
#X connect 2 0 24 0;
#X connect 2 0 25 0;
#X connect 2 0 23 0;
#X connect 2 0 22 0;
#X connect 2 0 27 0;
#X connect 5 0 3 0;
#X connect 6 0 4 0;
#X connect 8 0 7 0;
#X connect 9 0 11 0;
#X connect 10 0 12 0;
#X connect 13 0 14 0;
#X connect 16 0 15 0;
#X connect 22 0 19 0;
#X connect 23 0 18 0;
#X connect 24 0 21 0;
#X connect 25 0 17 0;
#X connect 26 0 20 0;
#X connect 27 0 28 0;
#X connect 29 0 1 0;
#X connect 30 0 29 0;
#X connect 30 1 29 0;
#X connect 30 2 31 0;
#X restore 274 41 pd control;
#X text 308 705 Adapted from Michael Edwards's MaxMSP input-strip., f 43;
#X text 308 668 AUTHOR: Ruben Philipp <me@rubenphilipp.com>;
#X text 308 683 DATE: 2025-04-05;
#X obj 553 249 s \$0-lp-freq;
#X obj 539 185 s \$0-to-presets;
#X obj 990 209 r \$0-to-presets;
#X obj 572 284 s \$0-post-filter-gain;
#X obj 578 322 s \$0-noise-gate-thresh;
#X obj 581 391 s \$0-attack;
#X obj 581 415 s \$0-release;
#X obj 580 438 s \$0-ratio;
#X obj 590 462 s \$0-thresh;
#X obj 586 485 s \$0-gain;
#X obj 586 516 s \$0-delay;
#X obj 1133 240 savestate;
#X msg 1173 268 export;
#X msg 1012 252 show;
#X obj 424 165 presetsctrl 8;
#X floatatom 755 323 4 0 0 0 - \$0-hp-on-set - 0;
#X floatatom 755 345 4 0 0 0 - \$0-lp-on-set - 0;
#X floatatom 754 368 4 0 0 0 - \$0-comp-on-set - 0;
#X obj 990 295 else/presets \\\$0-hp-freq-set \\\$0-lp-freq-set \\\$0-post-filter-gain-set \\\$0-noise-gate-thresh-set \\\$0-attack-set \\\$0-release-set \\\$0-ratio-set \\\$0-thresh-set \\\$0-gain-set \\\$0-delay-set \\\$0-hp-on-set \\\$0-lp-on-set \\\$0-comp-on-set;
#A saved \\\$0-hp-freq-set 20 || \\\$0-lp-freq-set 10000 || \\\$0-post-filter-gain-set 1 || \\\$0-noise-gate-thresh-set -100 || \\\$0-attack-set 10 || \\\$0-release-set 10 || \\\$0-ratio-set 1 || \\\$0-thresh-set -10 || \\\$0-gain-set 0 || \\\$0-delay-set 0 || \\\$0-hp-on-set 1 || \\\$0-lp-on-set 0 || \\\$0-comp-on-set 0 || \; \\\$0-hp-freq-set 20 || \\\$0-lp-freq-set 10000 || \\\$0-post-filter-gain-set 1 || \\\$0-noise-gate-thresh-set -50 || \\\$0-attack-set 10 || \\\$0-release-set 10 || \\\$0-ratio-set 1 || \\\$0-thresh-set -10 || \\\$0-gain-set 0 || \\\$0-delay-set 0 || \\\$0-hp-on-set 0 || \\\$0-lp-on-set 0 || \\\$0-comp-on-set 0 || \; \\\$0-hp-freq-set 20 || \\\$0-lp-freq-set 10000 || \\\$0-post-filter-gain-set 1 || \\\$0-noise-gate-thresh-set -100 || \\\$0-attack-set 10 || \\\$0-release-set 10 || \\\$0-ratio-set 1 || \\\$0-thresh-set -10 || \\\$0-gain-set 0 || \\\$0-delay-set 0 || \\\$0-hp-on-set 0 || \\\$0-lp-on-set 0 || \\\$0-comp-on-set 0 || \; \\\$0-hp-freq-set 20 || \\\$0-lp-freq-set 10000 || \\\$0-post-filter-gain-set 1 || \\\$0-noise-gate-thresh-set -100 || \\\$0-attack-set 10 || \\\$0-release-set 10 || \\\$0-ratio-set 1 || \\\$0-thresh-set -10 || \\\$0-gain-set 0 || \\\$0-delay-set 0 || \\\$0-hp-on-set 1 || \\\$0-lp-on-set 1 || \\\$0-comp-on-set 1 || \; \\\$0-hp-freq-set 20 || \\\$0-lp-freq-set 10000 || \\\$0-post-filter-gain-set 1 || \\\$0-noise-gate-thresh-set -100 || \\\$0-attack-set 10 || \\\$0-release-set 10 || \\\$0-ratio-set 1 || \\\$0-thresh-set -10 || \\\$0-gain-set 0 || \\\$0-delay-set 0 || \\\$0-hp-on-set 1 || \\\$0-lp-on-set 1 || \\\$0-comp-on-set 0 || \; -empty- \; -empty- \; -empty- \; -empty- \; -empty- \; -empty- \; -empty- \; -empty- \; -empty- \; -empty- \; -empty- \; -empty- \; -empty- \; -empty- \; -empty- \; -empty- \; -empty- \; -empty- \; -empty- \; -empty- \; -empty- \; -empty- \; -empty- \; -empty- \; -empty- \; -empty- \; -empty- \; -empty- \; -empty- \; -empty- \; -empty- \; -empty- \; -empty- \; -empty- \; -empty- \; -empty- \; -empty- \; -empty- \; -empty- \; -empty- \; -empty- \; -empty- \; -empty- \; -empty- \; -empty- \; -empty- \; -empty- \; -empty- \; -empty- \; -empty- \; -empty- \; -empty- \; -empty- \; -empty- \; -empty- \; -empty- \; -empty- \; -empty- \; -empty- \;;
#N canvas 556 594 523 268 toggle-workaround 0;
#X obj 17 62 s \$0-hp-on-set;
#X obj 17 20 r \$0-hp-on;
#X msg 17 41 set \$1;
#X msg 16 110 set \$1;
#X obj 16 89 r \$0-lp-on;
#X obj 16 131 s \$0-lp-on-set;
#X msg 15 186 set \$1;
#X obj 15 165 r \$0-comp-on;
#X obj 15 207 s \$0-comp-on-set;
#X text 138 18 this workaround is necessary as the toggle object does not work smoothly with else/presets since it interprets a bang to the receiver as a toggle command other than the number box which outputs is value as expected by else/presets.;
#X connect 1 0 2 0;
#X connect 2 0 0 0;
#X connect 3 0 5 0;
#X connect 4 0 3 0;
#X connect 6 0 8 0;
#X connect 7 0 6 0;
#X restore 754 301 pd toggle-workaround;
#X text 575 125 NB: manually sending the values is necessary as the else/presets (or better: the else/retrieve) object crashes Pd when a GUI object has a defined sender (issue #2443 on pd-else's GitHub);
#X text 788 322 <= this is also part of the workaround, f 16;
#X obj 422 91 loadbang;
#X msg 422 112 0;
#X obj 430 137 r \$0-to-presetsctrl;
#X obj 547 223 s \$0-hp-freq;
#X connect 0 0 17 0;
#X connect 0 0 5 0;
#X connect 0 0 52 0;
#X connect 4 0 19 1;
#X connect 5 1 17 1;
#X connect 7 0 73 0;
#X connect 9 0 98 0;
#X connect 10 0 76 0;
#X connect 12 0 25 1;
#X connect 13 0 20 0;
#X connect 14 0 18 0;
#X connect 15 0 5 1;
#X connect 16 0 4 1;
#X connect 17 0 4 0;
#X connect 17 0 19 0;
#X connect 18 0 17 0;
#X connect 19 0 21 0;
#X connect 20 0 19 0;
#X connect 21 0 25 0;
#X connect 22 0 77 0;
#X connect 24 0 21 1;
#X connect 25 0 30 0;
#X connect 25 0 45 0;
#X connect 28 0 29 0;
#X connect 29 0 30 0;
#X connect 30 0 46 0;
#X connect 32 0 78 0;
#X connect 34 0 79 0;
#X connect 36 0 80 0;
#X connect 37 0 81 0;
#X connect 38 0 82 0;
#X connect 45 0 30 1;
#X connect 46 0 1 0;
#X connect 46 0 54 0;
#X connect 47 0 83 0;
#X connect 50 0 46 1;
#X connect 52 0 59 0;
#X connect 52 1 60 0;
#X connect 54 0 55 0;
#X connect 54 1 56 0;
#X connect 57 0 53 1;
#X connect 58 0 53 0;
#X connect 61 0 51 1;
#X connect 62 0 51 0;
#X connect 67 0 69 0;
#X connect 75 0 91 0;
#X connect 84 0 91 0;
#X connect 84 1 85 0;
#X connect 85 0 91 0;
#X connect 86 0 91 0;
#X connect 87 0 74 0;
#X connect 88 0 8 0;
#X connect 89 0 6 0;
#X connect 90 0 27 0;
#X connect 91 0 84 0;
#X connect 95 0 96 0;
#X connect 96 0 87 0;
#X connect 97 0 87 0;
#X coords 0 -1 1 1 215 335 1 305 165;
