#N canvas 808 186 880 594 12;
#X obj 23 14 inlet;
#X obj 28 297 outlet;
#X text 72 14 data in;
#X text 93 298 data out;
#X obj 19 99 list;
#X obj 44 68 list prepend \$1;
#X obj 25 172 list trim;
#X obj 25 196 route \$1;
#X text 546 44 ARGS:;
#X text 545 66 #1: value name (e.g. freq);
#X obj 361 11 inlet;
#X text 408 11 bang to output;
#X text 544 11 Helper for [savestate].;
#X obj 191 293 outlet;
#X text 252 293 to savestate;
#X obj 165 13 inlet;
#X text 212 12 savestate data in;
#X connect 0 0 5 0;
#X connect 4 0 13 0;
#X connect 5 0 4 1;
#X connect 6 0 7 0;
#X connect 7 0 1 0;
#X connect 10 0 4 0;
#X connect 15 0 6 0;
