#N canvas 499 158 1168 759 12;
#X declare -lib pdlua;
#X msg 471 48 \; pdluax reload;
#X obj 219 48 declare -lib pdlua;
#X msg 199 245 columns \$1;
#X msg 315 245 rows \$1;
#X floatatom 199 205 5 0 0 0 - - - 0;
#X floatatom 315 205 5 0 0 0 - - - 0;
#X msg 199 164 4;
#X msg 412 245 size \$1;
#X floatatom 412 205 5 0 0 0 - - - 0;
#X obj 220 523 matrixctrl;
#N canvas 92 130 103 81 thru 0;
#X obj 15 13 inlet;
#X obj 15 46 outlet;
#X connect 0 0 1 0;
#X restore 214 465 pd thru;
#X msg 412 164 1;
#X msg 80 243 mode \$1;
#X msg 28 164 1;
#X msg 80 161 s dial;
#X text 57 163 or:;
#X text 57 201 or:;
#X msg 28 205 0;
#X msg 80 202 s toggle;
#X obj 311 652 print 2nd;
#X obj 208 652 print 1st;
#X msg 28 123 mode;
#X text 80 122 without arg: return current mode;
#X floatatom 541 205 5 0 0 0 - - - 0;
#X msg 541 245 step_width \$1;
#X msg 45 328 1 3 \$1;
#X floatatom 45 288 5 0 0 0 - - - 0;
#X floatatom 171 288 5 0 0 0 - - - 0;
#X msg 171 328 set 1 3 \$1;
#X msg 738 444 range \$1 \$2;
#X floatatom 738 363 5 0 0 0 - - - 0;
#X floatatom 838 363 5 0 0 0 - - - 0;
#X text 689 365 min:;
#X text 799 362 max:;
#X text 689 327 Set value range:;
#X obj 738 403 cyclone/pak 0 1;
#X obj 930 413 cyclone/pak 255 255 255;
#X msg 931 448 color_on \$1 \$2 \$3;
#X connect 2 0 10 0;
#X connect 3 0 10 0;
#X connect 4 0 2 0;
#X connect 5 0 3 0;
#X connect 6 0 4 0;
#X connect 6 0 5 0;
#X connect 7 0 10 0;
#X connect 8 0 7 0;
#X connect 9 0 20 0;
#X connect 9 1 19 0;
#X connect 10 0 9 0;
#X connect 11 0 8 0;
#X connect 12 0 10 0;
#X connect 13 0 12 0;
#X connect 14 0 12 0;
#X connect 17 0 12 0;
#X connect 18 0 12 0;
#X connect 21 0 10 0;
#X connect 23 0 24 0;
#X connect 24 0 10 0;
#X connect 25 0 10 0;
#X connect 26 0 25 0;
#X connect 27 0 28 0;
#X connect 28 0 10 0;
#X connect 29 0 10 0;
#X connect 30 0 35 0;
#X connect 31 0 35 1;
#X connect 35 0 29 0;
#X connect 36 0 37 0;
#X connect 37 0 10 0;
