#N canvas 546 193 660 672 12;
#X declare -lib pdlua;
#X msg 471 58 \; pdluax reload;
#X obj 219 48 declare -lib pdlua;
#X msg 199 243 columns \$1;
#X msg 316 244 rows \$1;
#X floatatom 199 218 5 0 0 0 - - - 0;
#X floatatom 315 221 5 0 0 0 - - - 0;
#X msg 199 191 4;
#X msg 407 236 size \$1;
#X floatatom 412 198 5 0 0 0 - - - 0;
#X obj 216 363 matrixctrl;
#N canvas 92 130 103 81 thru 0;
#X obj 15 13 inlet;
#X obj 15 46 outlet;
#X connect 0 0 1 0;
#X restore 216 320 pd thru;
#X msg 412 163 1;
#X connect 2 0 10 0;
#X connect 3 0 10 0;
#X connect 4 0 2 0;
#X connect 5 0 3 0;
#X connect 6 0 4 0;
#X connect 6 0 5 0;
#X connect 7 0 10 0;
#X connect 8 0 7 0;
#X connect 10 0 9 0;
#X connect 11 0 8 0;
