#N canvas 534 154 1168 759 12;
#X declare -lib pdlua;
#X msg 471 48 \; pdluax reload;
#X obj 219 48 declare -lib pdlua;
#X msg 199 245 columns \$1;
#X msg 315 245 rows \$1;
#X floatatom 199 205 5 0 0 0 - - - 0;
#X floatatom 315 205 5 0 0 0 - - - 0;
#X msg 199 164 4;
#X msg 412 245 size \$1;
#X floatatom 412 205 5 0 0 0 - - - 0;
#X obj 220 523 matrixctrl;
#N canvas 92 130 103 81 thru 0;
#X obj 15 13 inlet;
#X obj 15 46 outlet;
#X connect 0 0 1 0;
#X restore 214 465 pd thru;
#X msg 412 164 1;
#X msg 80 243 mode \$1;
#X msg 28 164 1;
#X msg 80 161 s dial;
#X text 57 163 or:;
#X text 57 201 or:;
#X msg 28 205 0;
#X msg 80 202 s toggle;
#X obj 311 652 print 2nd;
#X obj 208 652 print 1st;
#X msg 28 123 mode;
#X text 80 122 without arg: return current mode;
#X floatatom 541 205 5 0 0 0 - - - 0;
#X msg 541 245 step_width \$1;
#X msg 45 328 1 3 \$1;
#X floatatom 45 288 5 0 0 0 - - - 0;
#X floatatom 171 288 5 0 0 0 - - - 0;
#X msg 171 328 set 1 3 \$1;
#X msg 738 444 range \$1 \$2;
#X floatatom 738 363 5 0 0 0 - \$0-range-min - 0;
#X floatatom 838 363 5 0 0 0 - \$0-range-max - 0;
#X text 689 365 min:;
#X text 799 362 max:;
#X text 689 327 Set value range:;
#X obj 738 403 cyclone/pak 0 1;
#X msg 907 202 color_on \$1 \$2 \$3;
#X floatatom 907 149 5 0 0 0 - \$0-color-on-r - 0;
#X floatatom 985 149 5 0 0 0 - \$0-color-on-g - 0;
#X floatatom 1064 149 5 0 0 0 - \$0-color-on-b - 0;
#N canvas 359 213 555 220 init 1;
#X obj 18 45 symbol \$0-;
#X msg 18 113 \; \$1range-min 0 \; \$1range-max 1;
#X obj 18 12 loadbang;
#X obj 92 12 bng 19 250 50 0 empty empty empty 0 -10 0 12 #fcfcfc #000000 #000000;
#X msg 188 112 \; \$1color-on-r 0 \; \$1color-on-g 0 \; \$1color-on-b 0;
#X msg 335 114 \; \$1color-off-r 255 \; \$1color-off-g 255 \; \$1color-off-b 255;
#X connect 0 0 1 0;
#X connect 0 0 4 0;
#X connect 0 0 5 0;
#X connect 2 0 0 0;
#X connect 3 0 0 0;
#X restore 606 51 pd init;
#X floatatom 907 232 5 0 0 0 - \$0-color-off-r - 0;
#X floatatom 985 232 5 0 0 0 - \$0-color-off-g - 0;
#X floatatom 1064 232 5 0 0 0 - \$0-color-off-b - 0;
#X msg 907 285 color_off \$1 \$2 \$3;
#X obj 907 175 cyclone/pak 0 0 0;
#X obj 907 258 cyclone/pak 255 255 255;
#X connect 2 0 10 0;
#X connect 3 0 10 0;
#X connect 4 0 2 0;
#X connect 5 0 3 0;
#X connect 6 0 4 0;
#X connect 6 0 5 0;
#X connect 7 0 10 0;
#X connect 8 0 7 0;
#X connect 9 0 20 0;
#X connect 9 1 19 0;
#X connect 10 0 9 0;
#X connect 11 0 8 0;
#X connect 12 0 10 0;
#X connect 13 0 12 0;
#X connect 14 0 12 0;
#X connect 17 0 12 0;
#X connect 18 0 12 0;
#X connect 21 0 10 0;
#X connect 23 0 24 0;
#X connect 24 0 10 0;
#X connect 25 0 10 0;
#X connect 26 0 25 0;
#X connect 27 0 28 0;
#X connect 28 0 10 0;
#X connect 29 0 10 0;
#X connect 30 0 35 0;
#X connect 31 0 35 1;
#X connect 35 0 29 0;
#X connect 36 0 10 0;
#X connect 37 0 45 0;
#X connect 38 0 45 1;
#X connect 39 0 45 2;
#X connect 41 0 46 0;
#X connect 42 0 46 1;
#X connect 43 0 46 2;
#X connect 44 0 10 0;
#X connect 45 0 36 0;
#X connect 46 0 44 0;
