#N canvas 504 142 1188 947 12;
#X obj 660 248 inlet;
#X obj 36 872 outlet;
#X obj 510 72 pdcontrol;
#X obj 39 278 ctlin, f 19;
#X obj 620 694 ctlout;
#X msg 510 42 args 0;
#X obj 510 12 loadbang;
#N canvas 324 362 450 300 error-handling 0;
#X obj 13 14 inlet;
#X obj 13 38 list length;
#X obj 13 86 route 1;
#X obj 13 134 print error;
#X obj 13 62 < 2;
#X msg 13 110 "midi-controller: no port (arg 1) and/or cc (arg 2) given";
#X connect 0 0 1 0;
#X connect 1 0 4 0;
#X connect 2 0 5 0;
#X connect 4 0 2 0;
#X connect 5 0 3 0;
#X restore 604 103 pd error-handling;
#X obj 510 102 unpack 1 1;
#X obj 510 162 * 16;
#X obj 577 132 v \$0-channel;
#X obj 510 192 v \$0-ch-offset;
#X obj 510 132 - 1;
#X obj 142 402 f;
#X obj 84 654 f;
#X obj 377 426 v \$0-channel;
#X obj 251 426 v \$0-ch-offset;
#X obj 251 402 t b b;
#X obj 251 450 +;
#X obj 143 499 ==;
#X obj 143 523 route 1;
#X obj 38 654 f;
#X obj 38 728 spigot;
#X obj 38 690 pack f f;
#X text 21 9 This patch handles CC data from a MIDI controller identified by its port number (arg #1) and channel (arg #2). It returns a [CC \, value]-pair in outlet 1 It sends values formatted as a [CC \, value]-list to the controller.;
#X text 21 146 ARGS:;
#X text 21 171 #1: MIDI Port;
#X text 21 190 #2: MIDI Channel;
#X obj 36 362 t b b f 0;
#X obj 660 437 t l b;
#X obj 844 502 v \$0-channel;
#X obj 718 502 v \$0-ch-offset;
#X obj 718 478 t b b;
#X obj 718 526 +;
#X text 946 502 get device output channel;
#X obj 559 554 unpack f f;
#X text 22 83 Additionally \, the values are scaled from 0.0-1.0 resp. 0-127;
#X obj 143 579 t b b b;
#X msg 189 610 1;
#X text 21 107 INLET: CC \, val (0.0-1.0);
#X obj 633 589 cyclone/scale 0 1 0 127;
#X obj 40 321 cyclone/scale 0 127 0 1;
#X obj 661 325 spigot 1;
#X obj 38 757 t b l b, f 15;
#X obj 38 781 1;
#X obj 140 781 0;
#X obj 38 805 s \$0-out-gate;
#X obj 714 301 r \$0-out-gate;
#X text 739 327 This gate prevents circular loops e.g. when the midi controller sends and receives data from an object.;
#X obj 701 623 f;
#X obj 616 624 f;
#X obj 559 589 t b f b;
#X connect 0 0 42 0;
#X connect 2 0 7 0;
#X connect 2 0 8 0;
#X connect 3 0 41 0;
#X connect 3 1 14 1;
#X connect 3 2 13 1;
#X connect 5 0 2 0;
#X connect 6 0 5 0;
#X connect 8 0 12 0;
#X connect 8 1 10 0;
#X connect 9 0 11 0;
#X connect 12 0 9 0;
#X connect 13 0 19 0;
#X connect 14 0 23 0;
#X connect 15 0 18 1;
#X connect 16 0 18 0;
#X connect 17 0 16 0;
#X connect 17 1 15 0;
#X connect 18 0 19 1;
#X connect 19 0 20 0;
#X connect 20 0 37 0;
#X connect 21 0 23 1;
#X connect 22 0 43 0;
#X connect 23 0 22 0;
#X connect 28 0 13 0;
#X connect 28 1 17 0;
#X connect 28 2 21 1;
#X connect 28 3 22 1;
#X connect 29 0 35 0;
#X connect 29 1 32 0;
#X connect 30 0 33 1;
#X connect 31 0 33 0;
#X connect 32 0 31 0;
#X connect 32 1 30 0;
#X connect 33 0 49 1;
#X connect 35 0 51 0;
#X connect 35 1 40 0;
#X connect 37 0 14 0;
#X connect 37 1 21 0;
#X connect 37 2 38 0;
#X connect 38 0 22 1;
#X connect 40 0 50 1;
#X connect 41 0 28 0;
#X connect 42 0 29 0;
#X connect 43 0 44 0;
#X connect 43 1 1 0;
#X connect 43 2 45 0;
#X connect 44 0 46 0;
#X connect 45 0 46 0;
#X connect 47 0 42 1;
#X connect 49 0 4 2;
#X connect 50 0 4 0;
#X connect 51 0 50 0;
#X connect 51 1 4 1;
#X connect 51 2 49 0;
