#N canvas 152 219 1001 752 12;
#X text 14 12 This patch handles notein data for a MIDI controller identified by its port number (arg #1) and channel (arg #2). It returns a [note \, velocity]-pair in outlet 1;
#X obj 527 72 pdcontrol;
#X msg 527 42 args 0;
#X obj 527 12 loadbang;
#N canvas 324 362 450 300 error-handling 0;
#X obj 13 14 inlet;
#X obj 13 38 list length;
#X obj 13 86 route 1;
#X obj 13 134 print error;
#X obj 13 62 < 2;
#X msg 13 110 "midi-keyboard: no port (arg 1) and/or cc (arg 2) given";
#X connect 0 0 1 0;
#X connect 1 0 4 0;
#X connect 2 0 5 0;
#X connect 4 0 2 0;
#X connect 5 0 3 0;
#X restore 621 103 pd error-handling;
#X obj 527 102 unpack 1 1;
#X obj 527 162 * 16;
#X obj 594 132 v \$0-channel;
#X obj 527 192 v \$0-ch-offset;
#X obj 527 132 - 1;
#X text 14 69 ARGS:;
#X text 14 88 #1: MIDI Port;
#X text 14 107 #2: MIDI Channel;
#X obj 21 224 notein, f 21;
#X text 16 134 OUTLETS: 1: [note \, velocity] 2: additional data (e.g. [bend]);
#X obj 21 690 outlet;
#X obj 575 693 outlet;
#X obj 144 368 f;
#X obj 74 540 f;
#X obj 21 620 spigot;
#X obj 368 387 v \$0-channel;
#X obj 242 387 v \$0-ch-offset;
#X obj 242 363 t b b;
#X obj 242 411 +;
#X obj 209 317 t b b;
#X obj 146 454 ==;
#X obj 146 478 route 1;
#X obj 21 540 f;
#X obj 20 268 t b f 0;
#X obj 146 502 t b b b;
#X obj 192 534 1;
#X obj 21 580 pack f f;
#X obj 616 273 bendin;
#X obj 679 393 f;
#X obj 581 336 t b f 0;
#X obj 897 447 v \$0-channel;
#X obj 771 447 v \$0-ch-offset;
#X obj 771 423 t b b;
#X obj 771 471 +;
#X obj 575 619 spigot;
#X obj 739 353 t b b;
#X obj 575 582 f;
#X obj 681 510 ==;
#X obj 681 534 route 1;
#X obj 681 558 t b b;
#X obj 715 601 1;
#X msg 575 656 bend \$1;
#X connect 1 0 4 0;
#X connect 1 0 5 0;
#X connect 2 0 1 0;
#X connect 3 0 2 0;
#X connect 5 0 9 0;
#X connect 5 1 7 0;
#X connect 6 0 8 0;
#X connect 9 0 6 0;
#X connect 13 0 28 0;
#X connect 13 1 18 1;
#X connect 13 2 17 1;
#X connect 17 0 25 0;
#X connect 18 0 31 1;
#X connect 19 0 15 0;
#X connect 20 0 23 1;
#X connect 21 0 23 0;
#X connect 22 0 21 0;
#X connect 22 1 20 0;
#X connect 23 0 25 1;
#X connect 24 0 17 0;
#X connect 24 1 22 0;
#X connect 25 0 26 0;
#X connect 26 0 29 0;
#X connect 27 0 31 0;
#X connect 28 0 24 0;
#X connect 28 1 27 1;
#X connect 28 2 19 1;
#X connect 29 0 27 0;
#X connect 29 1 18 0;
#X connect 29 2 30 0;
#X connect 30 0 19 1;
#X connect 31 0 19 0;
#X connect 32 0 34 0;
#X connect 32 1 33 1;
#X connect 33 0 42 0;
#X connect 34 0 40 0;
#X connect 34 1 41 1;
#X connect 34 2 39 1;
#X connect 35 0 38 1;
#X connect 36 0 38 0;
#X connect 37 0 36 0;
#X connect 37 1 35 0;
#X connect 38 0 42 1;
#X connect 39 0 46 0;
#X connect 40 0 33 0;
#X connect 40 1 37 0;
#X connect 41 0 39 0;
#X connect 42 0 43 0;
#X connect 43 0 44 0;
#X connect 44 0 41 0;
#X connect 44 1 45 0;
#X connect 45 0 39 1;
#X connect 46 0 16 0;
