#N canvas 138 220 1117 788 10;
#X declare -lib else -path else;
#X obj 23 20 inlet;
#X obj 22 500 outlet;
#X obj 320 90 hradio 12 1 0 8 \$0-radio_s \$0-radio empty 0 -8 0 10 #aaaaaa #000000 #000000 0;
#X obj 522 14 declare -lib else -path else;
#X obj 275 204 else/keypress -toggle Shift_L;
#X obj 470 206 else/keypress -toggle Alt_L;
#X obj 275 269 + 0;
#X obj 275 225 * 1;
#X obj 470 227 * 2;
#X obj 275 246 else/hot 2;
#X obj 275 296 f;
#N canvas 701 739 450 300 colors 0;
#X obj 22 11 inlet;
#X obj 56 211 s \$0-radio;
#X msg 31 101 color #aaaaaa #000000 #000000;
#X msg 59 160 color #ff5050 #000000 #000000;
#X msg 46 129 color #56d672 #000000 #000000;
#X obj 22 36 route 0 1 3;
#X obj 85 68 t b;
#X connect 0 0 5 0;
#X connect 2 0 1 0;
#X connect 3 0 1 0;
#X connect 4 0 1 0;
#X connect 5 0 2 0;
#X connect 5 1 4 0;
#X connect 5 2 3 0;
#X connect 5 3 6 0;
#X connect 6 0 2 0;
#X restore 295 334 pd colors;
#X obj 275 118 r \$0-radio;
#X obj 275 169 v \$0-next-slot;
#X obj 381 169 v \$0-current-slot;
#X obj 522 34 else/canvas.setname \$0-this-patch 0, f 19;
#X obj 724 194 pdcontrol;
#X msg 724 170 args 0;
#X obj 724 215 unpack f;
#X obj 701 127 loadbang;
#X obj 712 495 s \$0-this-patch;
#X obj 712 432 * 12;
#X msg 783 415 number \$1;
#X obj 712 409 t f f;
#X text 861 405 resize object and graph;
#X obj 714 258 moses 1;
#X msg 714 277 8;
#X obj 701 147 t b b;
#X obj 712 236 f 8;
#X obj 712 386 r \$0-to-resize-obj;
#X obj 781 302 s \$0-to-resize-obj;
#X msg 712 458 donecanvasdialog 1 -1 3 0 0 0 0 \$1 12 320 90 \, dirty 0, f 48;
#X obj 783 436 s \$0-radio;
#X obj 768 237 r \$0-resize-cmd;
#X obj 76 72 s \$0-resize-cmd;
#X obj 275 139 route float;
#X obj 23 41 route float resize n;
#X connect 0 0 36 0;
#X connect 4 0 7 0;
#X connect 5 0 8 0;
#X connect 6 0 10 0;
#X connect 7 0 9 0;
#X connect 8 0 9 1;
#X connect 9 0 6 0;
#X connect 9 1 6 1;
#X connect 10 0 11 0;
#X connect 12 0 35 0;
#X connect 16 0 18 0;
#X connect 17 0 16 0;
#X connect 18 0 28 1;
#X connect 19 0 27 0;
#X connect 21 0 31 0;
#X connect 22 0 32 0;
#X connect 23 0 21 0;
#X connect 23 1 22 0;
#X connect 25 0 26 0;
#X connect 25 1 30 0;
#X connect 26 0 30 0;
#X connect 27 0 28 0;
#X connect 27 1 17 0;
#X connect 28 0 25 0;
#X connect 29 0 23 0;
#X connect 31 0 20 0;
#X connect 33 0 25 0;
#X connect 35 0 13 0;
#X connect 36 1 34 0;
#X connect 36 2 34 0;
#X coords 0 0 1 1 96 12 2 320 90;
