#N canvas 82 223 1064 788 10;
#X declare -lib else -path else;
#X obj 23 10 inlet;
#X obj 19 734 outlet;
#X obj 320 120 hradio 12 1 0 8 \$0-radio_s \$0-radio empty 0 -8 0 10 #aaaaaa #000000 #000000 0;
#X obj 522 14 declare -lib else -path else;
#X obj 269 279 v \$0-next-slot;
#X obj 375 256 v \$0-current-slot;
#X obj 522 34 else/canvas.setname \$0-this-patch 0, f 19;
#X obj 400 645 s \$0-this-patch;
#X obj 400 582 * 12;
#X msg 471 565 number \$1;
#X obj 400 559 t f f;
#X text 549 555 resize object and graph;
#X obj 402 426 moses 1;
#X msg 402 449 8;
#X obj 400 536 r \$0-to-resize-obj;
#X obj 442 474 s \$0-to-resize-obj;
#X obj 471 586 s \$0-radio;
#X obj 456 405 r \$0-resize-cmd;
#X obj 76 74 s \$0-resize-cmd;
#X obj 269 249 route float;
#X obj 22 527 else/insert;
#X obj 37 633 r \$0-outlet0;
#N canvas 759 789 328 119 pass-n 0;
#X obj 36 26 inlet;
#X msg 36 51 n \$1;
#X obj 36 72 s \$0-outlet0;
#X text 112 23 pass to presets object;
#X connect 0 0 1 0;
#X connect 1 0 2 0;
#X restore 207 74 pd pass-n;
#N canvas 910 611 252 257 init-args 0;
#X obj 32 82 pdcontrol;
#X msg 32 58 args 0;
#X obj 32 103 unpack f;
#X obj 23 10 loadbang;
#X obj 9 35 t b b;
#X obj 20 124 f 8;
#X obj 15 185 outlet;
#X connect 0 0 2 0;
#X connect 1 0 0 0;
#X connect 2 0 5 1;
#X connect 3 0 4 0;
#X connect 4 0 5 0;
#X connect 4 1 1 0;
#X connect 5 0 6 0;
#X restore 402 378 pd init-args;
#N canvas 683 734 450 300 init-attrs 0;
#X obj 23 205 outlet;
#X obj 18 11 loadbang;
#X obj 18 63 else/args -;
#X obj 18 86 route -noforward;
#X obj 18 37 t b b;
#X obj 47 125 v \$0-noforward;
#X msg 149 88 0;
#X connect 1 0 4 0;
#X connect 2 0 3 0;
#X connect 3 0 5 0;
#X connect 4 0 2 0;
#X connect 4 1 6 0;
#X connect 6 0 5 0;
#X restore 527 348 pd init-attrs;
#X msg 400 608 donecanvasdialog 1 -1 3 0 0 0 0 \$1 12 320 120 \, dirty 0, f 48;
#N canvas 875 52 450 300 set-noforward 0;
#X obj 10 12 inlet;
#X msg 10 54 1;
#X obj 10 33 sel 1;
#X msg 46 55 0;
#X obj 11 81 v \$0-noforward;
#X connect 0 0 2 0;
#X connect 1 0 4 0;
#X connect 2 0 1 0;
#X connect 2 1 3 0;
#X connect 3 0 4 0;
#X restore 290 74 pd set-noforward;
#X obj 98 660 r \$0-do-forward;
#N canvas 904 81 450 300 do-forward-or-not 0;
#X obj 8 10 inlet;
#X obj 10 257 outlet;
#X obj 9 68 t a b;
#X obj 10 155 spigot 1;
#X obj 36 90 v \$0-noforward;
#X obj 36 111 sel 1, f 9;
#X msg 36 132 0;
#X msg 85 132 1;
#X connect 0 0 2 0;
#X connect 2 0 3 0;
#X connect 2 1 4 0;
#X connect 3 0 1 0;
#X connect 4 0 5 0;
#X connect 5 0 6 0;
#X connect 5 1 7 0;
#X connect 6 0 3 1;
#X connect 7 0 3 1;
#X restore 98 691 pd do-forward-or-not;
#X obj 36 382 t b f b;
#N canvas 933 110 450 300 translate-mode 0;
#X obj 25 17 inlet;
#X obj 30 247 outlet;
#X obj 27 95 route 0 1 3, f 19;
#X obj 138 119 t b;
#X msg 26 149 load;
#X msg 65 171 save;
#X msg 101 197 clear;
#X obj 26 59 v \$0-mode;
#X connect 0 0 7 0;
#X connect 2 0 4 0;
#X connect 2 1 5 0;
#X connect 2 2 6 0;
#X connect 2 3 3 0;
#X connect 3 0 4 0;
#X connect 4 0 1 0;
#X connect 5 0 1 0;
#X connect 6 0 1 0;
#X connect 7 0 2 0;
#X restore 76 410 pd translate-mode;
#X obj 23 96 s \$0-radio;
#X obj 38 291 r \$0-radio_s;
#X text 754 16 modes: 0 = load \, 1 = save \, 3 = delete/clear;
#X obj 269 228 r \$0-radio_s;
#X obj 38 312 route float;
#N canvas 1049 226 450 300 pass-or-not 0;
#X obj 16 18 inlet;
#X obj 44 234 outlet;
#X obj 56 172 spigot 1;
#X obj 88 96 v \$0-ignore-radio;
#X obj 88 117 sel 1, f 10;
#X msg 88 138 0;
#X msg 144 138 1;
#X obj 17 51 t f b;
#X connect 0 0 7 0;
#X connect 2 0 1 0;
#X connect 3 0 4 0;
#X connect 4 0 5 0;
#X connect 4 1 6 0;
#X connect 5 0 2 1;
#X connect 6 0 2 1;
#X connect 7 0 2 0;
#X connect 7 1 3 0;
#X restore 37 345 pd pass-or-not;
#X obj 496 279 v \$0-ignore-radio;
#X msg 496 256 0;
#X obj 496 233 loadbang;
#N canvas 1078 255 252 399 update-gui 0;
#X obj 31 21 inlet;
#X obj 32 60 v \$0-mode;
#X obj 32 81 sel 3;
#X obj 59 128 v \$0-next-slot;
#X obj 59 152 v \$0-current-slot;
#X obj 32 203 t b b b;
#X msg 71 229 1;
#X obj 71 250 v \$0-ignore-radio;
#X obj 52 278 v \$0-current-slot;
#X obj 52 299 s \$0-radio;
#X msg 33 322 0;
#X obj 33 343 v \$0-ignore-radio;
#X obj 59 106 t b;
#X connect 0 0 1 0;
#X connect 1 0 2 0;
#X connect 2 0 5 0;
#X connect 2 1 12 0;
#X connect 3 0 4 0;
#X connect 5 0 10 0;
#X connect 5 1 8 0;
#X connect 5 2 6 0;
#X connect 6 0 7 0;
#X connect 8 0 9 0;
#X connect 10 0 11 0;
#X connect 12 0 3 0;
#X restore 32 447 pd update-gui;
#N canvas 1165 342 450 300 process-keys 0;
#X obj 18 19 else/keypress -toggle Shift_L;
#X obj 213 21 else/keypress -toggle Alt_L;
#X obj 18 84 + 0;
#X obj 18 40 * 1;
#X obj 213 42 * 2;
#X obj 18 61 else/hot 2;
#N canvas 701 739 450 300 colors 0;
#X obj 22 11 inlet;
#X obj 56 211 s \$0-radio;
#X msg 31 101 color #aaaaaa #000000 #000000;
#X msg 59 160 color #ff5050 #000000 #000000;
#X msg 46 129 color #56d672 #000000 #000000;
#X obj 22 36 route 0 1 3;
#X obj 85 68 t b;
#X connect 0 0 5 0;
#X connect 2 0 1 0;
#X connect 3 0 1 0;
#X connect 4 0 1 0;
#X connect 5 0 2 0;
#X connect 5 1 4 0;
#X connect 5 2 3 0;
#X connect 5 3 6 0;
#X connect 6 0 2 0;
#X restore 88 111 pd colors;
#X obj 18 111 v \$0-mode;
#X connect 0 0 3 0;
#X connect 1 0 4 0;
#X connect 2 0 7 0;
#X connect 2 0 6 0;
#X connect 3 0 5 0;
#X connect 4 0 5 1;
#X connect 5 0 2 0;
#X connect 5 1 2 1;
#X restore 401 348 pd process-keys;
#X text 447 450 default size=8;
#X obj 23 31 route float resize n noforward, f 51;
#N canvas 913 321 720 625 presets-messages 1;
#X obj 21 17 inlet;
#X text 116 14 deal with messages native to the [else/presets] object;
#X obj 20 56 route load save clear, f 50;
#X obj 315 89 s \$0-do-forward;
#X obj 20 89 s \$0-radio;
#N canvas 365 559 450 300 save 1;
#X obj 16 9 inlet;
#X obj 56 164 v \$0-mode;
#X obj 17 53 route float;
#X obj 81 87 v \$0-current-slot;
#X obj 17 117 t b f b;
#X obj 35 192 s \$0-radio;
#X msg 56 143 1;
#X msg 18 218 0;
#X obj 18 239 v \$0-mode;
#X connect 0 0 2 0;
#X connect 2 0 4 0;
#X connect 2 1 3 0;
#X connect 3 0 4 0;
#X connect 4 0 7 0;
#X connect 4 1 5 0;
#X connect 4 2 6 0;
#X connect 6 0 1 0;
#X connect 7 0 8 0;
#X restore 103 89 pd save;
#N canvas 1278 487 450 300 clear 0;
#X obj 16 10 inlet;
#X obj 16 42 route float;
#X msg 98 76 clear;
#X obj 18 108 s \$0-outlet0;
#X msg 17 78 clear \$1;
#X connect 0 0 1 0;
#X connect 1 0 4 0;
#X connect 1 1 2 0;
#X connect 2 0 3 0;
#X connect 4 0 3 0;
#X restore 218 89 pd clear;
#X connect 0 0 2 0;
#X connect 2 0 4 0;
#X connect 2 1 5 0;
#X connect 2 2 6 0;
#X connect 2 3 3 0;
#X restore 406 74 pd presets-messages;
#X obj 375 280 v \$0-mode;
#X connect 0 0 43 0;
#X connect 8 0 25 0;
#X connect 9 0 16 0;
#X connect 10 0 8 0;
#X connect 10 1 9 0;
#X connect 12 0 13 0;
#X connect 12 1 15 0;
#X connect 13 0 15 0;
#X connect 14 0 10 0;
#X connect 17 0 12 0;
#X connect 19 0 4 0;
#X connect 20 0 1 0;
#X connect 21 0 1 0;
#X connect 23 0 12 0;
#X connect 25 0 7 0;
#X connect 27 0 28 0;
#X connect 28 0 1 0;
#X connect 29 0 40 0;
#X connect 29 1 20 0;
#X connect 29 2 30 0;
#X connect 30 0 20 1;
#X connect 32 0 35 0;
#X connect 34 0 19 0;
#X connect 35 0 36 0;
#X connect 36 0 29 0;
#X connect 38 0 37 0;
#X connect 39 0 38 0;
#X connect 43 0 31 0;
#X connect 43 1 18 0;
#X connect 43 2 18 0;
#X connect 43 2 22 0;
#X connect 43 3 26 0;
#X connect 43 4 44 0;
#X coords 0 0 1 1 96 12 2 320 120;
