#N canvas 108 93 1018 908 8;
#X obj 370 220 hradio 12 1 0 8 \$0-radio \$0-radio_rec empty 0 -8 0 8 #fcfcfc #000000 #000000 0;
#X obj 186 78 else/keypress -toggle Shift_L;
#X obj 186 100 else/keypress -toggle Shift_R;
#X obj 355 79 else/keypress -toggle Alt_L;
#X obj 355 101 else/keypress -toggle Alt_R;
#X msg 215 156 1;
#X msg 376 156 2;
#X text 242 155 save;
#X text 405 155 clear;
#X obj 195 124 route 0 1;
#X msg 119 156 0;
#X obj 356 125 route 0 1;
#X obj 44 224 else/router 3 0;
#X text 586 12 preset storage object;
#X text 584 35 UI: click = load \, shift-click = save \, alt-click = clear;
#X obj 44 201 r \$0-radio;
#X obj 169 10 inlet;
#X obj 33 863 outlet;
#X text 143 156 load;
#X obj 120 126 loadbang;
#X obj 169 30 route float store clear clearall;
#X obj 84 863 outlet;
#X obj 133 863 outlet;
#X obj 25 8 inlet;
#X obj 513 403 text search \$0-current-data;
#X obj 514 377 unpack s;
#X obj 25 28 s \$0-in1;
#X obj 465 319 r \$0-in1;
#X obj 466 340 t a a;
#X obj 541 531 text set \$0-current-data;
#X obj 513 423 route -1;
#X obj 513 443 t b b;
#X obj 478 485 list;
#X msg 537 470 1e+15;
#X obj 717 534 text set \$0-current-data;
#X obj 713 475 t b f;
#X obj 661 356 text define \$0-current-data;
#X obj 696 499 list;
#X obj 40 678 clone preset_slot 8;
#X obj 536 125 pdcontrol;
#X msg 536 101 args 0;
#X obj 536 146 unpack f;
#X obj 536 77 loadbang;
#X msg 49 590 resize \$1;
#X obj 86 402 t b b;
#X msg 107 435 line 0;
#X obj 83 488 text sequence \$0-current-data;
#X obj 817 151 r \$0-radio;
#X obj 817 171 v \$0-current-slot;
#X obj 38 306 pack f bang;
#X obj 37 278 v \$0-current-slot;
#X obj 37 260 t b;
#X obj 148 589 v \$0-current-slot;
#X obj 708 152 r \$0-radio;
#X obj 708 172 v \$0-last-preset;
#X obj 145 622 list prepend bla;
#X obj 143 559 t l b;
#X obj 145 642 list trim;
#X obj 38 734 route float;
#X text 105 734 remove instance index;
#X obj 90 772 list split 1;
#X obj 120 796 list trim;
#X obj 177 370 t b;
#X obj 177 390 v \$0-current-slot;
#X obj 177 410 pack f bang;
#X msg 349 628 vis 2 1;
#X connect 1 0 9 0;
#X connect 2 0 9 0;
#X connect 3 0 11 0;
#X connect 4 0 11 0;
#X connect 5 0 12 1;
#X connect 6 0 12 1;
#X connect 9 0 10 0;
#X connect 9 1 5 0;
#X connect 10 0 12 1;
#X connect 11 0 10 0;
#X connect 11 1 6 0;
#X connect 12 0 51 0;
#X connect 12 1 44 0;
#X connect 12 2 62 0;
#X connect 15 0 12 0;
#X connect 16 0 20 0;
#X connect 19 0 10 0;
#X connect 23 0 26 0;
#X connect 24 0 30 0;
#X connect 25 0 24 0;
#X connect 27 0 28 0;
#X connect 28 0 25 0;
#X connect 28 1 32 1;
#X connect 28 1 37 1;
#X connect 30 0 31 0;
#X connect 30 1 35 0;
#X connect 31 0 32 0;
#X connect 31 1 33 0;
#X connect 32 0 29 0;
#X connect 33 0 29 1;
#X connect 35 0 37 0;
#X connect 35 1 34 1;
#X connect 37 0 34 0;
#X connect 38 0 58 0;
#X connect 39 0 41 0;
#X connect 40 0 39 0;
#X connect 41 0 43 0;
#X connect 42 0 40 0;
#X connect 43 0 38 0;
#X connect 44 0 46 0;
#X connect 44 1 45 0;
#X connect 45 0 46 0;
#X connect 46 0 56 0;
#X connect 47 0 48 0;
#X connect 49 0 38 0;
#X connect 50 0 49 0;
#X connect 51 0 50 0;
#X connect 52 0 55 1;
#X connect 53 0 54 0;
#X connect 55 0 57 0;
#X connect 56 0 55 0;
#X connect 56 1 52 0;
#X connect 57 0 38 1;
#X connect 58 1 60 0;
#X connect 60 1 61 0;
#X connect 61 0 17 0;
#X connect 62 0 63 0;
#X connect 63 0 64 0;
#X connect 64 0 38 2;
#X connect 65 0 38 0;
#X coords 0 -1 1 1 96 12 2 370 220;
