#N canvas 25 38 1018 1018 8;
#X obj 370 320 hradio 12 1 0 8 \$0-radio \$0-radio_rec empty 0 -8 0 8 #fcfcfc #000000 #000000 0;
#X obj 183 176 else/keypress -toggle Shift_L;
#X obj 183 198 else/keypress -toggle Shift_R;
#X obj 352 177 else/keypress -toggle Alt_L;
#X obj 352 199 else/keypress -toggle Alt_R;
#X msg 212 254 1;
#X msg 373 254 2;
#X text 239 253 save;
#X text 402 253 clear;
#X obj 192 222 route 0 1;
#X msg 116 254 0;
#X obj 353 223 route 0 1;
#X text 678 15 preset storage object;
#X text 676 38 UI: click = load \, shift-click = save \, alt-click = clear;
#X obj 44 261 r \$0-radio;
#X obj 129 10 inlet;
#X obj 33 923 outlet;
#X text 140 254 load;
#X obj 117 224 loadbang;
#X obj 84 923 outlet;
#X obj 133 923 outlet;
#X obj 25 8 inlet;
#X obj 553 601 text search \$0-current-data;
#X obj 554 575 unpack s;
#X obj 25 28 s \$0-in1;
#X obj 505 517 r \$0-in1;
#X obj 506 538 t a a;
#X obj 581 729 text set \$0-current-data;
#X obj 553 621 route -1;
#X obj 553 641 t b b;
#X obj 518 683 list;
#X msg 577 668 1e+15;
#X obj 757 732 text set \$0-current-data;
#X obj 753 673 t b f;
#X obj 751 601 text define \$0-current-data;
#X obj 736 697 list;
#X obj 555 91 pdcontrol;
#X msg 555 67 args 0;
#X obj 555 112 unpack f;
#X obj 532 24 loadbang;
#X msg 544 198 resize \$1;
#X msg 114 480 line 0;
#X obj 111 548 text sequence \$0-current-data;
#X obj 851 151 r \$0-radio;
#X obj 851 171 v \$0-current-slot;
#X obj 37 338 v \$0-current-slot;
#X obj 37 320 t b;
#X obj 142 641 v \$0-current-slot;
#X obj 122 674 list prepend bla;
#X obj 120 611 t l b;
#X obj 122 694 list trim;
#X obj 38 794 route float;
#X text 105 794 remove instance index;
#X obj 90 832 list split 1;
#X obj 120 856 list trim;
#X obj 326 414 v \$0-current-slot;
#X obj 330 438 t f 1;
#X obj 38 366 pack f 1;
#X obj 326 464 pack f f;
#X obj 696 483 s \$0-this-patch;
#X obj 707 94 else/canvas.setname \$0-this-patch 0, f 19;
#X obj 696 420 * 12;
#X obj 767 424 s \$0-radio_rec;
#X msg 767 403 number \$1;
#X obj 696 397 t f f;
#X text 845 393 resize object and graph;
#X obj 40 738 clone preset_slot 8;
#X obj 545 155 moses 1;
#X msg 545 174 8;
#X obj 544 218 s \$0-to-clone;
#X obj 26 703 r \$0-to-clone;
#X obj 129 30 route float store clear clearall resize, f 70;
#X obj 532 44 t b b;
#X obj 543 133 f 8;
#X obj 696 374 r \$0-to-resize-obj;
#X obj 612 199 s \$0-to-resize-obj;
#X obj 128 107 s \$0-radio_rec;
#X obj 623 218 s \$0-to-clip-value;
#X obj 128 82 preset_clip;
#X msg 696 446 donecanvasdialog 1 -1 3 0 0 0 0 \$1 12 370 320 \, dirty 0, f 48;
#X obj 181 62 r \$0-to-clip-value;
#X obj 184 859 v \$0-current-slot;
#X obj 157 478 text size \$0-current-data;
#X obj 157 498 != 0;
#X obj 110 521 spigot;
#X obj 226 102 preset_clip;
#X obj 279 82 r \$0-to-clip-value;
#X obj 226 124 t b f b, f 11;
#X obj 252 147 s \$0-radio_rec;
#X msg 461 254 3;
#X text 488 254 ignore;
#X obj 44 284 else/router 4 0;
#X obj 740 172 v \$0-active-preset;
#X obj 93 366 v \$0-active-preset;
#X obj 294 625 v \$0-active-preset;
#X obj 294 645 s \$0-radio_rec;
#X obj 88 430 t b b b b b;
#X obj 232 289 f 0;
#X obj 279 596 t b b b;
#X obj 326 379 t b b;
#X text 333 593 move back to active slot without recalling, f 22;
#X connect 1 0 9 0;
#X connect 2 0 9 0;
#X connect 3 0 11 0;
#X connect 4 0 11 0;
#X connect 5 0 91 1;
#X connect 5 0 97 1;
#X connect 6 0 91 1;
#X connect 6 0 97 1;
#X connect 9 0 10 0;
#X connect 9 1 5 0;
#X connect 10 0 91 1;
#X connect 10 0 97 1;
#X connect 11 0 10 0;
#X connect 11 1 6 0;
#X connect 14 0 91 0;
#X connect 15 0 71 0;
#X connect 18 0 10 0;
#X connect 21 0 24 0;
#X connect 22 0 28 0;
#X connect 23 0 22 0;
#X connect 25 0 26 0;
#X connect 26 0 23 0;
#X connect 26 1 30 1;
#X connect 26 1 35 1;
#X connect 28 0 29 0;
#X connect 28 1 33 0;
#X connect 29 0 30 0;
#X connect 29 1 31 0;
#X connect 30 0 27 0;
#X connect 31 0 27 1;
#X connect 33 0 35 0;
#X connect 33 1 32 1;
#X connect 35 0 32 0;
#X connect 36 0 38 0;
#X connect 37 0 36 0;
#X connect 38 0 73 1;
#X connect 39 0 72 0;
#X connect 40 0 69 0;
#X connect 41 0 84 0;
#X connect 42 0 49 0;
#X connect 43 0 44 0;
#X connect 45 0 57 0;
#X connect 45 0 19 0;
#X connect 45 0 93 0;
#X connect 46 0 45 0;
#X connect 47 0 48 1;
#X connect 48 0 50 0;
#X connect 49 0 48 0;
#X connect 49 1 47 0;
#X connect 50 0 66 1;
#X connect 51 1 53 0;
#X connect 53 1 54 0;
#X connect 54 0 16 0;
#X connect 55 0 56 0;
#X connect 56 0 58 0;
#X connect 56 1 58 1;
#X connect 57 0 66 0;
#X connect 58 0 66 2;
#X connect 61 0 79 0;
#X connect 63 0 62 0;
#X connect 64 0 61 0;
#X connect 64 1 63 0;
#X connect 66 0 51 0;
#X connect 67 0 68 0;
#X connect 67 1 40 0;
#X connect 67 1 75 0;
#X connect 67 1 77 0;
#X connect 68 0 40 0;
#X connect 68 0 75 0;
#X connect 68 0 77 0;
#X connect 70 0 66 0;
#X connect 71 0 78 0;
#X connect 71 1 85 0;
#X connect 71 4 67 0;
#X connect 72 0 73 0;
#X connect 72 1 37 0;
#X connect 73 0 67 0;
#X connect 74 0 64 0;
#X connect 78 0 76 0;
#X connect 79 0 59 0;
#X connect 80 0 78 1;
#X connect 81 0 20 0;
#X connect 82 0 83 0;
#X connect 83 0 84 1;
#X connect 84 0 42 0;
#X connect 85 0 87 0;
#X connect 86 0 85 1;
#X connect 87 0 10 0;
#X connect 87 1 88 0;
#X connect 87 2 5 0;
#X connect 89 0 91 1;
#X connect 91 0 46 0;
#X connect 91 1 96 0;
#X connect 91 2 99 0;
#X connect 94 0 95 0;
#X connect 96 0 98 0;
#X connect 96 1 81 0;
#X connect 96 2 84 0;
#X connect 96 3 41 0;
#X connect 96 4 82 0;
#X connect 97 0 91 1;
#X connect 98 0 97 0;
#X connect 98 1 94 0;
#X connect 98 2 89 0;
#X connect 99 0 98 0;
#X connect 99 1 55 0;
#X coords 0 0 1 1 96 12 2 370 320;
