#N canvas 667 375 892 594 10;
#X obj 30 18 inlet;
#X obj 23 329 outlet;
#X obj 419 131 text search \$0-current-data;
#X obj 420 105 unpack s;
#X obj 372 68 t a a;
#X obj 447 259 text set \$0-current-data;
#X obj 419 151 route -1;
#X obj 419 171 t b b;
#X obj 384 213 list;
#X msg 443 198 1e+15;
#X obj 623 262 text set \$0-current-data;
#X obj 619 203 t b f;
#X obj 602 227 list;
#X obj 369 18 inlet;
#X text 411 19 set;
#X obj 491 18 inlet;
#X text 547 18 clear;
#X msg 494 42 -1;
#X text 69 19 output;
#X msg 57 131 line 0;
#X obj 23 283 text sequence \$0-current-data;
#X obj 30 39 t b b b;
#X obj 156 84 text size \$0-current-data;
#X obj 156 105 != 0;
#X obj 29 208 spigot;
#X obj 494 65 text delete \$0-current-data;
#X obj 652 101 text define \$0-current-data;
#X connect 0 0 21 0;
#X connect 2 0 6 0;
#X connect 3 0 2 0;
#X connect 4 0 3 0;
#X connect 4 1 8 1;
#X connect 4 1 12 1;
#X connect 6 0 7 0;
#X connect 6 1 11 0;
#X connect 7 0 8 0;
#X connect 7 1 9 0;
#X connect 8 0 5 0;
#X connect 9 0 5 1;
#X connect 11 0 12 0;
#X connect 11 1 10 1;
#X connect 12 0 10 0;
#X connect 13 0 4 0;
#X connect 15 0 17 0;
#X connect 17 0 25 0;
#X connect 19 0 24 0;
#X connect 20 0 1 0;
#X connect 21 0 24 0;
#X connect 21 1 19 0;
#X connect 21 2 22 0;
#X connect 22 0 23 0;
#X connect 23 0 24 1;
#X connect 24 0 20 0;
