#N canvas 0 38 1531 1018 8;
#X obj 370 320 hradio 12 1 0 8 \$0-radio \$0-radio_rec empty 0 -8 0 8 #fcfcfc #000000 #000000 0;
#X obj 183 176 else/keypress -toggle Shift_L;
#X obj 183 198 else/keypress -toggle Shift_R;
#X obj 352 177 else/keypress -toggle Alt_L;
#X obj 352 199 else/keypress -toggle Alt_R;
#X msg 212 254 1;
#X msg 373 254 2;
#X text 239 253 save;
#X text 402 253 clear;
#X obj 192 222 route 0 1;
#X msg 116 254 0;
#X obj 353 223 route 0 1;
#X text 897 16 preset storage object;
#X text 895 39 UI: click = load \, shift-click = save \, alt-click = clear;
#X obj 44 261 r \$0-radio;
#X obj 129 10 inlet;
#X obj 33 923 outlet;
#X text 140 254 load;
#X obj 117 224 loadbang;
#X obj 84 923 outlet;
#X obj 133 923 outlet;
#X obj 25 8 inlet;
#X obj 592 710 text search \$0-current-data;
#X obj 593 684 unpack s;
#X obj 25 28 s \$0-in1;
#X obj 544 626 r \$0-in1;
#X obj 545 647 t a a;
#X obj 582 822 text set \$0-current-data;
#X obj 592 730 route -1;
#X obj 592 750 t b b;
#X obj 557 792 list;
#X msg 616 777 1e+15;
#X obj 723 818 text set \$0-current-data;
#X obj 735 763 t b f;
#X obj 702 676 text define \$0-current-data;
#X obj 718 787 list;
#X obj 774 92 pdcontrol;
#X msg 774 68 args 0;
#X obj 774 113 unpack f;
#X obj 751 25 loadbang;
#X msg 763 199 resize \$1;
#X msg 114 480 line 0;
#X obj 111 548 text sequence \$0-current-data;
#X obj 1070 152 r \$0-radio;
#X obj 1070 172 v \$0-current-slot;
#X obj 37 338 v \$0-current-slot;
#X obj 37 320 t b;
#X obj 142 641 v \$0-current-slot;
#X obj 122 674 list prepend bla;
#X obj 120 611 t l b;
#X obj 122 694 list trim;
#X obj 38 794 route float;
#X text 105 794 remove instance index;
#X obj 90 832 list split 1;
#X obj 120 856 list trim;
#X obj 326 403 v \$0-current-slot;
#X obj 326 427 t f 1;
#X obj 38 366 pack f 1;
#X obj 326 451 pack f f;
#X obj 696 483 s \$0-this-patch;
#X obj 926 95 else/canvas.setname \$0-this-patch 0, f 19;
#X obj 696 420 * 12;
#X obj 767 424 s \$0-radio_rec;
#X msg 767 403 number \$1;
#X obj 696 397 t f f;
#X text 845 393 resize object and graph;
#X obj 40 738 clone preset_slot 8;
#X obj 764 156 moses 1;
#X msg 764 175 8;
#X obj 763 219 s \$0-to-clone;
#X obj 26 703 r \$0-to-clone;
#X obj 751 45 t b b;
#X obj 762 134 f 8;
#X obj 696 374 r \$0-to-resize-obj;
#X obj 831 200 s \$0-to-resize-obj;
#X obj 128 107 s \$0-radio_rec;
#X obj 842 219 s \$0-to-clip-value;
#X obj 128 82 preset_clip;
#X msg 696 446 donecanvasdialog 1 -1 3 0 0 0 0 \$1 12 370 320 \, dirty 0, f 48;
#X obj 181 62 r \$0-to-clip-value;
#X obj 184 859 v \$0-current-slot;
#X obj 157 478 text size \$0-current-data;
#X obj 157 498 != 0;
#X obj 110 521 spigot;
#X obj 226 102 preset_clip;
#X obj 279 82 r \$0-to-clip-value;
#X obj 226 124 t b f b, f 11;
#X obj 252 147 s \$0-radio_rec;
#X msg 461 254 3;
#X text 488 254 ignore;
#X obj 44 284 else/router 4 0;
#X obj 959 173 v \$0-active-preset;
#X obj 93 366 v \$0-active-preset;
#X obj 294 625 v \$0-active-preset;
#X obj 294 645 s \$0-radio_rec;
#X obj 88 430 t b b b b b;
#X obj 226 288 f 0;
#X obj 279 596 t b b b;
#X text 326 594 move back to active slot without recalling, f 22;
#X obj 252 928 outlet;
#X obj 280 859 v \$0-current-slot;
#X obj 326 379 t b b b;
#X text 250 288 previous mode;
#X msg 335 146 1;
#X obj 386 99 preset_clip;
#X obj 439 79 r \$0-to-clip-value;
#X obj 386 121 t b f b, f 11;
#X obj 412 144 s \$0-radio_rec;
#X msg 495 143 2;
#X obj 460 447 else/loop 8;
#X obj 512 426 r \$0-to-delloop;
#X obj 843 240 s \$0-to-delloop;
#X msg 497 396 all 1;
#X obj 475 370 t b b;
#X text 470 350 clearall;
#X text 325 360 clear;
#X text 103 411 save;
#X text 31 678 load;
#X obj 129 30 route float store clear clearall resize write read, f 101;
#X text 623 651 temp store for input;
#X obj 53 761 else/router 2 0;
#X obj 1118 492 t b b b;
#X msg 1155 522 1;
#X msg 1099 521 0;
#X obj 1134 574 s \$0-to-clone;
#X msg 1134 551 all 1;
#X obj 1138 412 bng 15 250 50 0 empty empty empty 0 -8 0 8 #fcfcfc #000000 #000000;
#X obj 1138 435 savepanel;
#X obj 1354 558 text define \$0-text-dump;
#X msg 1413 526 clear;
#X msg 1354 526 write \$1;
#X obj 1138 455 t s b b;
#X obj 125 780 text insert \$0-text-dump 1e+09;
#X obj 169 743 r \$0-clone-out-router;
#X obj 1185 550 s \$0-clone-out-router;
#X obj 1306 239 r \$0-write-cmd;
#X obj 1306 144 r \$0-read-cmd;
#X obj 1306 260 route bang;
#X obj 1306 165 route bang;
#X obj 1306 283 bng 16 250 50 0 empty empty empty 0 -8 0 10 #fcfcfc #000000 #000000;
#X obj 1306 188 bng 16 250 50 0 empty empty empty 0 -8 0 10 #fcfcfc #000000 #000000;
#X text 1397 139 message read with or without specified filename, f 19;
#X text 1402 237 message write with or without specified filename, f 19;
#X obj 1306 211 s \$0-load-file-dialog;
#X obj 1306 306 s \$0-write-file-dialog;
#X obj 486 57 s \$0-write-cmd;
#X obj 567 58 s \$0-read-cmd;
#X obj 1363 189 s \$0-read-file-file;
#X obj 1363 284 s \$0-write-file-file;
#X obj 1138 390 r \$0-write-file-dialog;
#X obj 1206 435 r \$0-write-file-file;
#X obj 1287 793 text define \$0-text-load;
#X text 1137 364 write to file;
#X text 1135 642 read from file;
#X msg 1355 765 clear;
#X msg 1291 766 read \$1;
#X obj 1131 673 r \$0-load-file-dialog;
#X obj 1131 693 bng 15 250 50 0 empty empty empty 0 -8 0 8 #fcfcfc #000000 #000000;
#X obj 1131 713 openpanel;
#X obj 1131 733 t b s b;
#X obj 1107 763 t b b;
#X obj 557 349 r \$0-do-clearall;
#X obj 350 56 s \$0-do-clearall;
#X obj 1129 787 s \$0-do-clearall;
#X obj 1110 898 text sequence \$0-text-load;
#X msg 1122 854 line 0;
#X obj 1108 813 t b b b;
#X obj 1166 852 != 0;
#X obj 1110 874 spigot;
#X obj 1166 831 text size \$0-text-load;
#X obj 1110 923 s \$0-to-save;
#X obj 185 705 r \$0-to-save;
#X obj 1200 714 r \$0-read-file-file;
#X connect 1 0 9 0;
#X connect 2 0 9 0;
#X connect 3 0 11 0;
#X connect 4 0 11 0;
#X connect 5 0 90 1;
#X connect 5 0 96 1;
#X connect 6 0 90 1;
#X connect 6 0 96 1;
#X connect 9 0 10 0;
#X connect 9 1 5 0;
#X connect 10 0 90 1;
#X connect 10 0 96 1;
#X connect 11 0 10 0;
#X connect 11 1 6 0;
#X connect 14 0 90 0;
#X connect 15 0 118 0;
#X connect 18 0 10 0;
#X connect 21 0 24 0;
#X connect 22 0 28 0;
#X connect 23 0 22 0;
#X connect 25 0 26 0;
#X connect 26 0 23 0;
#X connect 26 1 30 1;
#X connect 26 1 35 1;
#X connect 28 0 29 0;
#X connect 28 1 33 0;
#X connect 29 0 30 0;
#X connect 29 1 31 0;
#X connect 30 0 27 0;
#X connect 31 0 27 1;
#X connect 33 0 35 0;
#X connect 33 1 32 1;
#X connect 35 0 32 0;
#X connect 36 0 38 0;
#X connect 37 0 36 0;
#X connect 38 0 72 1;
#X connect 39 0 71 0;
#X connect 40 0 69 0;
#X connect 41 0 83 0;
#X connect 42 0 49 0;
#X connect 43 0 44 0;
#X connect 45 0 57 0;
#X connect 45 0 19 0;
#X connect 45 0 92 0;
#X connect 46 0 45 0;
#X connect 47 0 48 1;
#X connect 48 0 50 0;
#X connect 49 0 48 0;
#X connect 49 1 47 0;
#X connect 50 0 66 1;
#X connect 51 1 53 0;
#X connect 53 1 54 0;
#X connect 54 0 16 0;
#X connect 55 0 56 0;
#X connect 56 0 58 0;
#X connect 56 1 58 1;
#X connect 57 0 66 0;
#X connect 58 0 66 2;
#X connect 61 0 78 0;
#X connect 63 0 62 0;
#X connect 64 0 61 0;
#X connect 64 1 63 0;
#X connect 66 0 120 0;
#X connect 67 0 68 0;
#X connect 67 1 40 0;
#X connect 67 1 74 0;
#X connect 67 1 76 0;
#X connect 67 1 111 0;
#X connect 68 0 40 0;
#X connect 68 0 74 0;
#X connect 68 0 76 0;
#X connect 68 0 111 0;
#X connect 70 0 66 0;
#X connect 71 0 72 0;
#X connect 71 1 37 0;
#X connect 72 0 67 0;
#X connect 73 0 64 0;
#X connect 77 0 75 0;
#X connect 78 0 59 0;
#X connect 79 0 77 1;
#X connect 80 0 20 0;
#X connect 81 0 82 0;
#X connect 82 0 83 1;
#X connect 83 0 42 0;
#X connect 84 0 86 0;
#X connect 85 0 84 1;
#X connect 86 0 96 0;
#X connect 86 1 87 0;
#X connect 86 2 103 0;
#X connect 88 0 90 1;
#X connect 90 0 46 0;
#X connect 90 1 95 0;
#X connect 90 2 101 0;
#X connect 93 0 94 0;
#X connect 95 0 97 0;
#X connect 95 1 80 0;
#X connect 95 2 83 0;
#X connect 95 3 41 0;
#X connect 95 4 81 0;
#X connect 96 0 90 1;
#X connect 97 0 96 0;
#X connect 97 1 93 0;
#X connect 97 2 88 0;
#X connect 100 0 99 0;
#X connect 101 0 97 0;
#X connect 101 1 55 0;
#X connect 101 2 100 0;
#X connect 103 0 90 1;
#X connect 104 0 106 0;
#X connect 105 0 104 1;
#X connect 106 0 96 0;
#X connect 106 1 107 0;
#X connect 106 2 108 0;
#X connect 108 0 90 1;
#X connect 109 0 99 0;
#X connect 110 0 109 1;
#X connect 112 0 66 2;
#X connect 113 0 109 0;
#X connect 113 1 112 0;
#X connect 118 0 77 0;
#X connect 118 1 84 0;
#X connect 118 2 104 0;
#X connect 118 3 162 0;
#X connect 118 4 67 0;
#X connect 118 5 145 0;
#X connect 118 6 146 0;
#X connect 120 0 51 0;
#X connect 120 1 132 0;
#X connect 121 0 123 0;
#X connect 121 1 125 0;
#X connect 121 2 122 0;
#X connect 122 0 134 0;
#X connect 123 0 134 0;
#X connect 125 0 124 0;
#X connect 126 0 127 0;
#X connect 127 0 131 0;
#X connect 129 0 128 0;
#X connect 130 0 128 0;
#X connect 131 0 130 0;
#X connect 131 1 121 0;
#X connect 131 2 129 0;
#X connect 133 0 120 1;
#X connect 135 0 137 0;
#X connect 136 0 138 0;
#X connect 137 0 139 0;
#X connect 137 1 148 0;
#X connect 138 0 140 0;
#X connect 138 1 147 0;
#X connect 139 0 144 0;
#X connect 140 0 143 0;
#X connect 149 0 126 0;
#X connect 150 0 131 0;
#X connect 154 0 151 0;
#X connect 155 0 151 0;
#X connect 156 0 157 0;
#X connect 157 0 158 0;
#X connect 158 0 159 0;
#X connect 159 0 160 0;
#X connect 159 1 155 0;
#X connect 159 2 154 0;
#X connect 160 0 166 0;
#X connect 160 1 163 0;
#X connect 161 0 113 0;
#X connect 164 0 170 0;
#X connect 165 0 168 0;
#X connect 166 0 168 0;
#X connect 166 1 165 0;
#X connect 166 2 169 0;
#X connect 167 0 168 1;
#X connect 168 0 164 0;
#X connect 169 0 167 0;
#X connect 171 0 66 1;
#X connect 172 0 159 0;
#X coords 0 0 1 1 96 12 2 370 320;
