#N canvas 151 367 795 611 12;
#X text 529 31 A receive object with a dynamically changeable symbol., f 30;
#X text 528 133 ARGS:;
#X text 528 157 #1: Initial receive symbol.;
#X text 528 85 INLETS:;
#X text 528 109 #1: <symbol> sets new receive symbol;
#N canvas 1165 643 254 159 receive-\$0 1;
#X obj 50 50 r 3322-from-pattr;
#X obj 50 85 s out-3887;
#X connect 0 0 1 0;
#X restore 436 334 pd receive-\$0;
#X obj 70 445 r out-\$0;
#X obj 70 469 outlet;
#X obj 68 30 inlet;
#X obj 217 52 loadbang;
#X obj 217 76 t b b;
#X obj 68 151 symbol \$1;
#X msg 248 133 symbol;
#X obj 68 185 sel symbol;
#X obj 135 218 pack s \$0;
#X obj 135 280 s pd-receive-\$0;
#X msg 135 242 clear \, obj 50 50 r \$1 \, obj 50 85 s out-\$2 \, connect 0 0 1 0;
#X connect 6 0 7 0;
#X connect 8 0 11 0;
#X connect 9 0 10 0;
#X connect 10 0 11 0;
#X connect 10 1 12 0;
#X connect 11 0 13 0;
#X connect 12 0 13 1;
#X connect 13 1 14 0;
#X connect 14 0 16 0;
#X connect 16 0 15 0;
