#N canvas 288 298 694 608 12;
#X text 13 10 This is an example patch for [savepattr].;
#X floatatom 83 97 5 0 0 0 frequency: \$0-to-freq \$0-freq 0;
#X floatatom 84 126 5 0 0 0 amplitude: \$0-to-amp \$0-amp 0;
#X obj 374 38 savestate;
#X text 419 189 This example uses send/receive connections to the resdpective objects., f 27;
#X obj 178 131 statepattr amp -from \$0-amp -to \$0-to-amp;
#X obj 178 92 statepattr freq -from \$0-freq -to \$0-to-freq;
#X connect 3 0 5 1;
#X connect 3 0 6 1;
#X connect 3 1 5 2;
#X connect 3 1 6 2;
#X connect 5 1 3 0;
#X connect 6 1 3 0;
#X coords 0 -1 1 1 120 80 1 5 70;
