#N canvas 669 189 1024 782 12;
#X obj 23 14 inlet;
#X obj 161 609 outlet;
#X text 226 610 data out;
#X obj 351 511 list;
#X obj 167 285 list trim;
#X obj 167 309 route \$1;
#X obj 362 13 inlet;
#X obj 352 612 outlet;
#X obj 165 13 inlet;
#X text 413 612 to savestate (1st inlet);
#X text 212 9 savestate data (1st outlet), f 16;
#X text 408 11 savestate bang (2nd outlet), f 15;
#X text 813 14 ARGS:;
#X text 813 36 #1: value name (e.g. freq);
#X obj 498 434 list prepend \$1;
#X obj 628 609 outlet;
#X text 690 609 dump (current data when bang in first inlet), f 20;
#X text 68 11 data in or bang (then dump), f 9;
#X obj 628 353 route bang;
#X obj 627 501 list;
#X obj 629 561 list trim;
#X obj 632 529 route bang;
#X text 715 530 filter empty lists;
#X text 304 433 store initial state \, too;
#X connect 0 0 18 0;
#X connect 3 0 7 0;
#X connect 4 0 5 0;
#X connect 5 0 1 0;
#X connect 5 0 14 0;
#X connect 6 0 3 0;
#X connect 8 0 4 0;
#X connect 14 0 3 1;
#X connect 14 0 19 1;
#X connect 18 0 19 0;
#X connect 18 1 14 0;
#X connect 19 0 21 0;
#X connect 20 0 15 0;
#X connect 21 1 20 0;
