#N canvas 624 175 1024 782 12;
#X obj 23 14 inlet;
#X obj 169 214 outlet;
#X text 72 14 data in;
#X text 234 215 data out;
#X obj 359 116 list;
#X obj 169 114 list trim;
#X obj 169 138 route \$1;
#X obj 362 13 inlet;
#X obj 360 217 outlet;
#X obj 165 13 inlet;
#X text 421 217 to savestate (1st inlet);
#X text 212 9 savestate data (1st outlet), f 16;
#X text 408 11 savestate bang (2nd outlet), f 15;
#X text 813 14 ARGS:;
#X text 813 36 #1: value name (e.g. freq);
#X obj 471 81 list prepend \$1;
#X connect 0 0 15 0;
#X connect 4 0 8 0;
#X connect 5 0 6 0;
#X connect 6 0 1 0;
#X connect 7 0 4 0;
#X connect 9 0 5 0;
#X connect 15 0 4 1;
