#N canvas 619 199 1024 782 12;
#X declare -lib else -path else;
#X obj 23 14 inlet;
#X obj 35 695 outlet;
#X text 72 14 data in;
#X text 100 696 data out;
#X obj 354 417 list;
#X obj 164 415 list trim;
#X obj 164 439 route \$1;
#X obj 362 13 inlet;
#X obj 357 569 outlet;
#X obj 165 13 inlet;
#X text 418 569 to savestate (1st inlet);
#X text 212 9 savestate data (1st outlet), f 16;
#X text 408 11 savestate bang (2nd outlet), f 15;
#X text 831 66 ARGS:;
#X text 831 88 #1: value name (e.g. freq);
#X obj 466 382 list prepend \$1;
#X obj 674 31 loadbang;
#X msg 674 115 args 0;
#X obj 674 139 pdcontrol;
#X obj 764 12 declare -lib else -path else;
#X obj 539 305 receiver \$0-none;
#X obj 674 163 else/break -;
#X obj 674 187 route -to -from;
#X obj 674 211 else/pick 1;
#X obj 766 211 else/pick 1;
#X obj 674 237 route 0;
#X obj 766 237 route 0;
#X obj 721 266 s \$0-s-sym;
#X obj 812 266 s \$0-r-sym;
#X obj 199 542 r \$0-s-sym;
#X obj 501 250 r \$0-r-sym;
#X obj 168 614 send;
#X text 208 605 send data if -to attribute is set, f 17;
#X obj 501 274 t b s;
#X obj 464 351 spigot;
#X msg 501 298 1;
#X text 536 336 receive if -from attribute is set, f 17;
#X obj 162 354 list;
#X obj 40 415 list trim;
#X obj 40 439 route \$1;
#X text 49 464 direct out;
#X text 201 364 wait for attr processing, f 14;
#X obj 199 566 t b s;
#X obj 166 54 t a b a;
#X connect 0 0 15 0;
#X connect 4 0 8 0;
#X connect 5 0 6 0;
#X connect 6 0 31 0;
#X connect 7 0 4 0;
#X connect 9 0 43 0;
#X connect 15 0 4 1;
#X connect 16 0 17 0;
#X connect 17 0 18 0;
#X connect 18 0 21 0;
#X connect 20 0 34 0;
#X connect 21 0 22 0;
#X connect 22 0 23 0;
#X connect 22 1 24 0;
#X connect 23 0 25 0;
#X connect 24 0 26 0;
#X connect 25 1 27 0;
#X connect 26 1 28 0;
#X connect 29 0 42 0;
#X connect 30 0 33 0;
#X connect 33 0 35 0;
#X connect 33 1 20 0;
#X connect 34 0 15 0;
#X connect 35 0 34 1;
#X connect 37 0 5 0;
#X connect 38 0 39 0;
#X connect 39 0 1 0;
#X connect 42 0 37 0;
#X connect 42 1 31 1;
#X connect 43 0 38 0;
#X connect 43 1 17 0;
#X connect 43 2 37 1;
