#N canvas 614 347 694 608 12;
#X text 13 10 This is an example patch for [savepattr].;
#X floatatom 83 97 5 0 0 0 frequency: - - 0;
#X floatatom 84 126 5 0 0 0 amplitude: - - 0;
#X obj 374 38 savestate;
#X obj 178 92 statepattr freq;
#X obj 178 131 statepattr amp;
#X text 375 151 This example uses direct connections to the [savestate] object., f 27;
#X connect 1 0 4 0;
#X connect 2 0 5 0;
#X connect 3 0 4 1;
#X connect 3 0 5 1;
#X connect 3 1 4 2;
#X connect 3 1 5 2;
#X connect 4 0 1 0;
#X connect 4 1 3 0;
#X connect 5 0 2 0;
#X connect 5 1 3 0;
#X coords 0 -1 1 1 120 80 1 5 70;
