#N canvas 352 297 778 592 10;
#X declare -path else;
#X text 27 14 This is a Pd version of the Faust (co.)limiter_lad_mono lookahead limiter.;
#X obj 521 44 declare -path else;
#X text 27 43 INLETS:;
#X text 27 61 #1: Control messages in;
#X text 27 97 OUTLETS:;
#X text 27 115 #1: Control messages out;
#X text 27 133 #2: Limited signal out;
#X text 27 79 #2: signal (mono) in;
#X obj 358 305 limiter~;
#X obj 402 198 noise~;
#X obj 479 353 else/meter~;
#X obj 404 353 else/meter~;
#X msg 60 247 attack \$1;
#X floatatom 60 224 5 0 0 0 - - - 0;
#X obj 402 240 *~ 2;
#X floatatom 60 178 5 0 0 0 - - - 0;
#X msg 60 198 ceiling \$1;
#X floatatom 60 270 5 0 0 0 - - - 0;
#X msg 60 290 hold \$1;
#X floatatom 60 315 5 0 0 0 - - - 0;
#X msg 60 335 release \$1;
#X obj 320 358 print;
#X msg 23 178 1;
#X msg 24 223 0.01;
#X msg 21 270 0.1;
#X msg 21 315 1;
#X text 133 198 linear amplitude output limit;
#X text 133 247 attack time in seconds;
#X text 133 290 hold time in seconds;
#X text 134 336 release time in seconds;
#X obj 335 238 bng 16 250 50 0 empty empty dump 18 8 0 10 #fcfcfc #000000 #000000;
#X obj 513 151 pdcontrol;
#N canvas 179 217 450 300 faust-doc 0;
#X msg 15 86 browse https://faustlibraries.grame.fr/libs/compressors/#colimiter_lad_mono;
#X obj 15 130 pdcontrol;
#X obj 15 23 inlet;
#X connect 0 0 1 0;
#X connect 2 0 0 0;
#X restore 219 132 pd faust-doc;
#X obj 219 106 bng 16 250 50 0 empty empty empty 0 -8 0 10 #fcfcfc #000000 #000000;
#X text 418 305 or [faust/limiter~];
#X connect 8 0 21 0;
#X connect 8 1 11 0;
#X connect 9 0 14 0;
#X connect 12 0 8 0;
#X connect 13 0 12 0;
#X connect 14 0 8 1;
#X connect 14 0 10 0;
#X connect 15 0 16 0;
#X connect 16 0 8 0;
#X connect 17 0 18 0;
#X connect 18 0 8 0;
#X connect 19 0 20 0;
#X connect 20 0 8 0;
#X connect 22 0 15 0;
#X connect 23 0 13 0;
#X connect 24 0 17 0;
#X connect 25 0 19 0;
#X connect 30 0 8 0;
#X connect 33 0 32 0;
